<svg width="42" height="42" viewBox="0 0 42 42" fill="none" xmlns="http://www.w3.org/2000/svg">
<path d="M34.1245 18.1494V34.125C34.1245 35.1693 33.7097 36.1708 32.9712 36.9092C32.2328 37.6477 31.2313 38.0625 30.187 38.0625H11.812C10.7677 38.0625 9.7662 37.6477 9.02778 36.9092C8.28935 36.1708 7.87451 35.1693 7.87451 34.125V7.875C7.87451 6.83071 8.28935 5.82919 9.02778 5.09077C9.7662 4.35234 10.7677 3.9375 11.812 3.9375H19.9126C20.6085 3.93761 21.276 4.21408 21.7681 4.70613L33.3559 16.2939C33.8479 16.786 34.1244 17.4535 34.1245 18.1494Z" stroke="#062251" stroke-width="2.625" stroke-linejoin="round"/>
<path d="M21 4.59375V14.4375C21 15.1337 21.2766 15.8014 21.7688 16.2937C22.2611 16.7859 22.9288 17.0625 23.625 17.0625H33.4688M14.4375 23.625H27.5625M14.4375 30.1875H27.5625" stroke="#062251" stroke-width="2.625" stroke-linecap="round" stroke-linejoin="round"/>
</svg>
