<svg width="42" height="42" viewBox="0 0 42 42" fill="none" xmlns="http://www.w3.org/2000/svg">
<path d="M35.8206 15.1016C35.403 15.5165 34.8383 15.7494 34.2497 15.7494C33.6611 15.7494 33.0964 15.5165 32.6788 15.1016L30.8347 13.2568C30.4197 12.8394 30.1868 12.2748 30.1868 11.6863C30.1868 11.0977 30.4197 10.5331 30.8347 10.1158L35.0093 5.94121C35.0173 5.93319 35.0233 5.92333 35.0266 5.91248C35.03 5.90163 35.0306 5.89013 35.0285 5.87898C35.0264 5.86782 35.0216 5.85735 35.0146 5.84846C35.0075 5.83958 34.9984 5.83256 34.988 5.82801C32.2941 4.67465 28.8004 5.26117 26.5822 7.46371C24.4593 9.5711 24.3387 12.7359 25.1163 15.5028C25.2268 15.8958 25.2266 16.3117 25.1155 16.7046C25.0045 17.0975 24.787 17.4521 24.4872 17.7291L10.2958 30.9164C9.95703 31.2197 9.68373 31.589 9.49255 32.0015C9.30138 32.414 9.19634 32.8612 9.18387 33.3157C9.17141 33.7702 9.25177 34.2224 9.42004 34.6448C9.58831 35.0672 9.84097 35.4508 10.1625 35.7723C10.4841 36.0937 10.8679 36.3461 11.2904 36.5142C11.7128 36.6822 12.1651 36.7624 12.6196 36.7497C13.0741 36.7369 13.5213 36.6317 13.9337 36.4403C14.3461 36.2489 14.7152 35.9754 15.0183 35.6365L28.3197 21.4205C28.5937 21.1256 28.943 20.9109 29.3299 20.7996C29.7168 20.6883 30.1268 20.6846 30.5156 20.7889C33.2604 21.5222 36.38 21.3844 38.4784 19.3172C40.7334 17.0958 41.2199 13.1698 40.1272 10.923C40.1223 10.9131 40.1151 10.9046 40.1062 10.898C40.0973 10.8915 40.087 10.8872 40.0761 10.8854C40.0652 10.8837 40.054 10.8845 40.0435 10.8879C40.033 10.8913 40.0235 10.8971 40.0157 10.9049L35.8206 15.1016Z" stroke="#062251" stroke-width="2.625" stroke-miterlimit="10" stroke-linecap="round"/>
<path d="M18.3748 23.2983C16.9409 21.9038 16.2838 21.2549 15.8318 20.8136C15.6056 20.5889 15.4572 20.2977 15.408 19.9827C15.3589 19.6677 15.4117 19.3451 15.5587 19.0622C15.6362 18.9231 15.7328 18.7955 15.8458 18.6832L17.132 17.429C17.2651 17.2956 17.4217 17.188 17.5939 17.1115C17.8657 16.9912 18.1673 16.9552 18.4598 17.0081C18.7523 17.0611 19.0221 17.2005 19.2345 17.4085C19.6816 17.8424 20.5002 18.6389 21.9752 20.0761M26.0095 23.8971C29.3686 27.0225 33.4431 30.7279 35.0329 32.0519C35.1518 32.1499 35.2489 32.2717 35.3179 32.4094C35.3868 32.5472 35.4262 32.6979 35.4335 32.8518C35.4408 33.0057 35.4157 33.1594 35.36 33.3031C35.3043 33.4468 35.2191 33.5772 35.11 33.6859L32.3718 36.4233C32.2604 36.5322 32.1279 36.6173 31.9826 36.6734C31.8372 36.7294 31.6819 36.7553 31.5262 36.7495C31.3705 36.7437 31.2176 36.7062 31.0769 36.6394C30.9361 36.5726 30.8104 36.4779 30.7074 36.361C29.3514 34.7876 25.6961 30.8558 22.5642 27.5836" stroke="#062251" stroke-width="2.625" stroke-linecap="round" stroke-linejoin="round"/>
<path d="M1.42348 15.8731L3.83602 13.5155C3.87287 13.4792 3.91661 13.4508 3.96466 13.4318C4.01271 13.4127 4.06408 13.4035 4.11574 13.4047C4.21989 13.4036 4.32032 13.4434 4.39547 13.5155C4.48283 13.6019 4.58874 13.6673 4.70515 13.7066C4.82156 13.746 4.94542 13.7584 5.0673 13.7427C5.38148 13.7082 5.71699 13.6114 5.93438 13.4047C6.42656 12.9289 5.85727 11.9913 6.29039 11.3917C6.78565 10.7352 7.32793 10.1156 7.91297 9.53778C8.40516 9.05543 10.3608 7.21465 13.647 5.89149C14.6979 5.4667 15.8209 5.24889 16.9545 5.25C18.8075 5.25 20.2357 6.07032 20.7492 6.53543C21.0574 6.82869 21.3396 7.14817 21.5925 7.49028C21.3455 7.39925 21.0932 7.32336 20.837 7.26305C20.2981 7.14873 19.7454 7.11391 19.1964 7.15969C18.1029 7.24911 16.7838 7.75524 16.0792 8.30813C14.9389 9.21047 14.4492 10.418 14.3721 11.9757C14.3163 13.134 14.5952 13.7886 17.3334 16.5277C17.427 16.6321 17.4764 16.7688 17.4712 16.909C17.466 17.0492 17.4066 17.1818 17.3055 17.2791L15.8109 18.7556C15.7067 18.8578 15.567 18.9156 15.4211 18.917C15.2752 18.9184 15.1345 18.8632 15.0284 18.763C13.2286 16.9632 12.0219 16.0486 11.337 15.6327C10.652 15.2168 10.1007 15.0995 9.83578 15.0708C9.31541 15.0192 8.79184 15.1301 8.33707 15.3882C8.25728 15.4321 8.18432 15.4874 8.12051 15.5523C8.014 15.6624 7.93035 15.7925 7.87439 15.9351C7.81843 16.0777 7.79127 16.2299 7.79448 16.3831C7.79768 16.5362 7.83118 16.6872 7.89306 16.8273C7.95493 16.9675 8.04394 17.094 8.15496 17.1995L8.29523 17.3307C8.33165 17.3661 8.3606 17.4085 8.38036 17.4553C8.40013 17.502 8.41031 17.5523 8.41031 17.6031C8.41031 17.6539 8.40013 17.7041 8.38036 17.7509C8.3606 17.7977 8.33165 17.84 8.29523 17.8754L5.88516 20.2289C5.84865 20.2659 5.80506 20.2951 5.75699 20.3148C5.70893 20.3346 5.65738 20.3444 5.60543 20.3438C5.5013 20.3448 5.4009 20.305 5.3257 20.233L1.42348 16.4243C1.35285 16.3499 1.31348 16.2513 1.31348 16.1487C1.31348 16.0461 1.35285 15.9474 1.42348 15.8731Z" stroke="#062251" stroke-width="2.625" stroke-linecap="round" stroke-linejoin="round"/>
</svg>
