<svg width="42" height="42" viewBox="0 0 42 42" fill="none" xmlns="http://www.w3.org/2000/svg">
<path d="M2.625 2.625V38.0625C2.625 38.4106 2.76328 38.7444 3.00942 38.9906C3.25556 39.2367 3.5894 39.375 3.9375 39.375H39.375" stroke="#062251" stroke-width="2.625" stroke-linecap="round" stroke-linejoin="round"/>
<path d="M12.7974 18.375H9.51611C8.61002 18.375 7.87549 19.1095 7.87549 20.0156V32.4844C7.87549 33.3905 8.61002 34.125 9.51611 34.125H12.7974C13.7035 34.125 14.438 33.3905 14.438 32.4844V20.0156C14.438 19.1095 13.7035 18.375 12.7974 18.375Z" stroke="#062251" stroke-width="2.625" stroke-linecap="round" stroke-linejoin="round"/>
<path d="M24.6099 14.4395H21.3286C20.4225 14.4395 19.688 15.174 19.688 16.0801V32.4863C19.688 33.3924 20.4225 34.127 21.3286 34.127H24.6099C25.516 34.127 26.2505 33.3924 26.2505 32.4863V16.0801C26.2505 15.174 25.516 14.4395 24.6099 14.4395Z" stroke="#062251" stroke-width="2.625" stroke-linecap="round" stroke-linejoin="round"/>
<path d="M36.3926 9.1875H33.1113C32.2052 9.1875 31.4707 9.92203 31.4707 10.8281V32.4844C31.4707 33.3905 32.2052 34.125 33.1113 34.125H36.3926C37.2987 34.125 38.0332 33.3905 38.0332 32.4844V10.8281C38.0332 9.92203 37.2987 9.1875 36.3926 9.1875Z" stroke="#062251" stroke-width="2.625" stroke-linecap="round" stroke-linejoin="round"/>
</svg>
