<svg width="42" height="42" viewBox="0 0 42 42" fill="none" xmlns="http://www.w3.org/2000/svg">
<path d="M7.17667 31.1719C7.27511 30.8126 7.05936 30.313 6.85346 29.9529C6.78964 29.8453 6.72008 29.7413 6.6451 29.6412C4.87919 26.9631 3.93796 23.8256 3.93807 20.6177C3.90854 11.4097 11.544 3.9375 20.9858 3.9375C29.2201 3.9375 36.0943 9.64195 37.6997 17.2143C37.9406 18.3369 38.0624 19.4818 38.0631 20.63C38.0631 29.8512 30.7221 37.4407 21.2803 37.4407C19.7783 37.4407 17.753 37.0634 16.648 36.7541C15.543 36.4448 14.4397 36.0347 14.1551 35.9248C13.8637 35.8129 13.5542 35.7553 13.2421 35.755C12.9017 35.7538 12.5646 35.8216 12.2511 35.9543L6.68612 37.9624C6.56451 38.015 6.43562 38.0487 6.30385 38.0625C6.19963 38.0622 6.09651 38.0412 6.00045 38.0008C5.90439 37.9604 5.8173 37.9013 5.74422 37.827C5.67114 37.7527 5.61351 37.6646 5.57468 37.5679C5.53585 37.4712 5.51659 37.3677 5.518 37.2635C5.52484 37.1721 5.54134 37.0816 5.56721 36.9936L7.17667 31.1719Z" stroke="#062251" stroke-width="2.625" stroke-miterlimit="10" stroke-linecap="round"/>
<path d="M13.126 23.625C14.5757 23.625 15.751 22.4497 15.751 21C15.751 19.5503 14.5757 18.375 13.126 18.375C11.6762 18.375 10.501 19.5503 10.501 21C10.501 22.4497 11.6762 23.625 13.126 23.625Z" fill="#062251"/>
<path d="M21.0005 23.625C22.4502 23.625 23.6255 22.4497 23.6255 21C23.6255 19.5503 22.4502 18.375 21.0005 18.375C19.5507 18.375 18.3755 19.5503 18.3755 21C18.3755 22.4497 19.5507 23.625 21.0005 23.625Z" fill="#062251"/>
<path d="M28.875 23.625C30.3247 23.625 31.5 22.4497 31.5 21C31.5 19.5503 30.3247 18.375 28.875 18.375C27.4253 18.375 26.25 19.5503 26.25 21C26.25 22.4497 27.4253 23.625 28.875 23.625Z" fill="#062251"/>
</svg>
