<svg width="109" height="31" viewBox="0 0 109 31" fill="none" xmlns="http://www.w3.org/2000/svg">
<path d="M1.2335 9.73047H10.9835H12.4748L12.5002 24.5585L12.4135 24.6025H0.800169L0.756836 24.5585V9.77447L1.2335 9.73047Z" fill="white"/>
<path d="M0.756836 3.39648H24.1568L24.2435 3.57248V8.72048L24.1135 8.80848H0.800169L0.756836 8.76448V3.39648Z" fill="white"/>
<path d="M35.368 22V4.24H38.512V22H35.368ZM42.9548 7.864C41.8028 7.864 41.0108 7.096 41.0108 5.944C41.0108 4.816 41.8028 4.048 42.9548 4.048C44.1308 4.048 44.9228 4.816 44.9228 5.944C44.9228 7.096 44.1308 7.864 42.9548 7.864ZM41.3708 22V9.76H44.5148V22H41.3708ZM54.3269 9.424C56.6069 9.424 57.9989 10.888 57.9989 13.384V22H54.8789V13.984C54.8789 12.736 54.1829 11.992 53.0549 11.992C51.5429 11.992 50.5589 13.048 50.5589 14.728V22H47.4149V9.76H50.0549L50.4629 11.608H50.4869C51.2549 10.216 52.6229 9.424 54.3269 9.424ZM65.5129 22.384C62.9689 22.384 61.4809 20.872 61.4809 18.472V12.16H59.3689V9.76H61.4809V6.448L64.6009 5.752V9.76H68.7529V12.16H64.6009V17.92C64.6009 19.096 65.1529 19.792 66.0889 19.792C66.9769 19.792 67.6489 19.264 67.9369 17.968L69.4489 19.624C68.9689 21.376 67.4809 22.384 65.5129 22.384ZM77.0862 22.408C73.2222 22.408 70.7022 19.792 70.7022 15.76C70.7022 11.872 72.9822 9.352 76.5342 9.352C79.9662 9.352 82.1502 11.8 82.1502 15.64C82.1502 16.096 82.1262 16.552 82.0542 16.792H73.8222C73.9902 18.76 75.2382 19.984 77.0862 19.984C78.4542 19.984 79.5342 19.288 79.9902 18.088L82.4142 19.048C81.7422 21.136 79.6302 22.408 77.0862 22.408ZM73.8222 14.752H78.9822C78.8862 12.856 77.9982 11.776 76.5342 11.776C74.9502 11.776 74.0382 12.904 73.8222 14.752ZM84.6336 22V4.24H87.7776V22H84.6336ZM93.8524 22.288C91.5244 22.288 89.8924 20.944 89.8924 18.784C89.8924 16.6 91.5964 15.088 94.7884 14.752L96.7324 14.536C97.3084 14.488 97.7404 14.104 97.7404 13.432C97.7404 12.4 96.8284 11.752 95.6044 11.752C94.1164 11.752 93.1564 12.88 93.1084 14.176L90.2284 13.504C90.3244 11.176 92.4604 9.352 95.6284 9.352C98.7964 9.352 100.788 11.176 100.788 13.912V22H98.0044L97.6684 20.296H97.6444C96.8764 21.568 95.5324 22.288 93.8524 22.288ZM95.0044 19.912C96.5404 19.912 97.6684 18.76 97.6684 17.056V16.432L95.5084 16.672C93.8044 16.864 93.0364 17.56 93.0364 18.472C93.0364 19.384 93.8524 19.912 95.0044 19.912ZM105.135 7.864C103.983 7.864 103.191 7.096 103.191 5.944C103.191 4.816 103.983 4.048 105.135 4.048C106.311 4.048 107.103 4.816 107.103 5.944C107.103 7.096 106.311 7.864 105.135 7.864ZM103.551 22V9.76H106.695V22H103.551Z" fill="white"/>
</svg>
