<svg width="24" height="22" viewBox="0 0 24 22" fill="none" xmlns="http://www.w3.org/2000/svg">
<path d="M4.06301 0.0676076C3.29688 0.0576918 2.8599 0.0395128 3.01296 0.0238128C3.15754 0.00852588 7.29189 -0.0018031 12.2008 0.000262698C19.5148 0.00356797 21.1957 0.0147233 21.5099 0.0609971C21.7211 0.091984 21.9299 0.142803 21.9743 0.174203C22.0495 0.227087 22.0442 0.230805 21.9037 0.230805C21.8205 0.230392 21.7522 0.2118 21.7522 0.189076C21.7522 0.166353 21.7114 0.157263 21.6613 0.169245C21.6113 0.180813 21.5159 0.198166 21.4493 0.208082C21.3827 0.217584 21.2102 0.244853 21.0656 0.268403C20.9211 0.291953 20.6622 0.311785 20.4901 0.312198C20.3088 0.312611 20.1771 0.330377 20.1771 0.35434C20.1771 0.378716 20.3185 0.395656 20.5204 0.395656C20.709 0.395656 20.873 0.414248 20.8839 0.436972C20.8948 0.459696 20.8997 0.486964 20.894 0.497293C20.8883 0.507622 20.1569 0.52828 19.2685 0.542741C18.1053 0.561746 17.649 0.582404 17.6385 0.616696C17.6288 0.647821 17.611 0.643001 17.5851 0.602236C17.5504 0.547285 17.5436 0.547285 17.5246 0.602236C17.5052 0.657186 17.4987 0.657186 17.464 0.602236C17.4293 0.547285 17.4224 0.547285 17.4034 0.602236C17.384 0.657186 17.3776 0.657186 17.3428 0.602236C17.3081 0.547285 17.3012 0.547285 17.2823 0.602236C17.2629 0.657186 17.2564 0.657186 17.2217 0.602236C17.1869 0.547285 17.1801 0.547285 17.1611 0.602236C17.1417 0.657186 17.1352 0.657186 17.1005 0.602236C17.0658 0.547285 17.0589 0.547285 17.0399 0.602236C17.0205 0.657186 17.0141 0.657186 16.9794 0.602236C16.9446 0.547285 16.9378 0.547285 16.9188 0.602236C16.8994 0.657186 16.8929 0.657186 16.8582 0.602236C16.8235 0.547285 16.8166 0.547285 16.7976 0.602236C16.7782 0.657186 16.7718 0.657186 16.7399 0.602236C16.708 0.547285 16.6991 0.547285 16.6603 0.602236C16.6219 0.657186 16.6147 0.657186 16.5957 0.602236C16.5763 0.547285 16.5698 0.547285 16.5351 0.602236C16.5004 0.657186 16.4935 0.657186 16.4745 0.602236C16.4596 0.559267 16.4446 0.555135 16.4269 0.588188C16.4079 0.623307 15.3857 0.641486 12.4836 0.657599C9.30838 0.675365 8.56042 0.689825 8.53579 0.734033C8.51156 0.777415 8.49702 0.776176 8.46188 0.726183C8.42352 0.671233 8.41625 0.671233 8.39726 0.726183C8.37788 0.781133 8.37142 0.781133 8.33669 0.726183C8.30195 0.671233 8.29509 0.671233 8.2761 0.726183C8.25672 0.781133 8.25026 0.781133 8.21553 0.726183C8.18079 0.671233 8.17393 0.671233 8.15495 0.726183C8.13556 0.781133 8.1291 0.781133 8.09437 0.726183C8.05963 0.671233 8.05277 0.671233 8.03379 0.726183C8.0144 0.781133 8.00794 0.781133 7.97321 0.726183C7.93848 0.671233 7.93161 0.671233 7.91263 0.726183C7.89324 0.781133 7.88678 0.781133 7.85205 0.726183C7.81732 0.671233 7.81045 0.671233 7.79147 0.726183C7.77208 0.781133 7.76562 0.781133 7.73089 0.726183C7.69616 0.671233 7.68929 0.671233 7.67031 0.726183C7.65093 0.781133 7.64446 0.781133 7.60973 0.726183C7.575 0.671233 7.56813 0.671233 7.54915 0.726183C7.52977 0.781133 7.5233 0.781133 7.4914 0.726183C7.45949 0.671233 7.45061 0.671233 7.41184 0.726183C7.37347 0.781133 7.3662 0.781133 7.34722 0.726183C7.32783 0.671233 7.32137 0.671233 7.28664 0.726183C7.25191 0.781133 7.24504 0.781133 7.22606 0.726183C7.20668 0.671233 7.20021 0.671233 7.16548 0.726183C7.13075 0.781133 7.12388 0.781133 7.1049 0.726183C7.08552 0.671233 7.07906 0.671233 7.04715 0.726183C7.02009 0.77287 7.00394 0.775762 6.98092 0.737752C6.95951 0.701807 6.70912 0.680323 6.12271 0.663383C5.5468 0.646857 5.28469 0.624546 5.26127 0.589841C5.23663 0.55307 5.2225 0.555962 5.20675 0.602236C5.18736 0.657186 5.1809 0.657186 5.14899 0.602236C5.11709 0.547285 5.10901 0.547285 5.07751 0.602236C5.04641 0.657186 5.03914 0.657186 5.01208 0.602236C4.98502 0.547285 4.97776 0.547285 4.94625 0.602236C4.92081 0.646857 4.90264 0.650988 4.88083 0.616283C4.86346 0.588601 4.66638 0.553483 4.41598 0.533651C4.1773 0.514646 3.98183 0.484898 3.98183 0.467959C3.98223 0.451019 3.93215 0.436146 3.87117 0.435319C3.81019 0.434493 3.7379 0.401853 3.71084 0.363016C3.6648 0.296498 3.66157 0.296498 3.66035 0.364669C3.65955 0.404332 3.64097 0.436972 3.61876 0.436972C3.59654 0.436972 3.57635 0.404332 3.57352 0.364669C3.56908 0.295671 3.56827 0.295671 3.55333 0.364669C3.54485 0.404332 3.51981 0.436972 3.4976 0.436972C3.47538 0.436972 3.4556 0.404332 3.45398 0.364669C3.45236 0.325006 3.44308 0.315503 3.43379 0.344011C3.4245 0.372519 3.39865 0.395656 3.37644 0.395656C3.35423 0.395656 3.33605 0.367974 3.33605 0.333682C3.33605 0.29939 3.32232 0.278732 3.30576 0.287408C3.2892 0.296498 3.16643 0.279145 3.03315 0.249811C2.81305 0.201058 2.91078 0.194861 5.41595 0.170071L2.83122 0.125863L5.37556 0.0845472L4.06301 0.0676076Z" fill="white" fill-opacity="0.99"/>
<path d="M1.86195 0.174203C1.99523 0.140324 2.14991 0.104379 2.20524 0.094463C2.26097 0.0845472 2.39263 0.073805 2.49804 0.0709129C2.60344 0.0676076 2.69916 0.0837208 2.71006 0.106445C2.72097 0.129168 2.7137 0.147761 2.69351 0.147761C2.67291 0.147761 2.67735 0.16594 2.7036 0.187837C2.73457 0.21483 2.64922 0.226674 2.44755 0.223369C2.25006 0.220477 2.14102 0.234937 2.13456 0.265924C2.12769 0.298564 2.10588 0.300216 2.06388 0.271708C2.02067 0.242374 1.98594 0.248158 1.94272 0.292366C1.9092 0.326658 1.85064 0.349795 1.81228 0.344011C1.77391 0.338227 1.73756 0.356819 1.7315 0.385327C1.72545 0.413835 1.72141 0.451019 1.72221 0.467959C1.72343 0.484898 1.70081 0.475809 1.67173 0.447301C1.63013 0.405985 1.60388 0.412596 1.53886 0.479527C1.49282 0.527454 1.4278 0.553896 1.38741 0.541501C1.34662 0.528693 1.31633 0.541501 1.31552 0.571249C1.31472 0.599757 1.23112 0.697262 1.12975 0.788157C0.999704 0.904668 0.937509 0.937721 0.918931 0.90095C0.900757 0.864178 0.849063 0.895992 0.751328 1.00424C0.673382 1.08976 0.560704 1.23437 0.500933 1.32526C0.440757 1.41616 0.359581 1.5649 0.320406 1.65579C0.281231 1.74669 0.246499 1.83965 0.243672 1.86237C0.240845 1.88509 0.225498 1.93137 0.209747 1.96566C0.193997 1.99995 0.191574 2.20405 0.205305 2.42014C0.218632 2.63622 0.233172 3.04483 0.237614 3.32909C0.242057 3.61293 0.250538 3.8129 0.256192 3.77323C0.261846 3.73357 0.294155 3.70093 0.327272 3.70093C0.367658 3.70093 0.379639 3.72503 0.363215 3.77323C0.349484 3.8129 0.326868 3.87859 0.312733 3.91908C0.298597 3.95957 0.268711 3.98601 0.246499 3.97733C0.224287 3.96907 0.171784 3.83355 0.130186 3.67655C0.0728379 3.46295 0.0530486 3.24067 0.0502215 2.79198C0.0473945 2.36973 0.0639529 2.13464 0.105955 1.99541C0.138668 1.88675 0.179458 1.79833 0.196016 1.79916C0.212574 1.79998 0.215805 1.77726 0.202882 1.74875C0.190362 1.72024 0.219844 1.61365 0.269115 1.51119C0.318387 1.40872 0.387851 1.28395 0.423795 1.23354C0.459335 1.18314 0.50376 1.15546 0.521934 1.17157C0.540107 1.1881 0.543742 1.17363 0.530011 1.13934C0.513049 1.09761 0.604322 0.979863 0.809888 0.777828C1.00617 0.584883 1.20487 0.435319 1.36722 0.357232C1.50615 0.290714 1.72868 0.208495 1.86195 0.174203Z" fill="white" fill-opacity="0.99"/>
<path d="M22.4186 0.356819C22.3515 0.353927 22.3479 0.34649 22.3984 0.313024C22.4319 0.291127 22.459 0.272121 22.459 0.271295C22.459 0.270469 22.5272 0.29815 22.6104 0.332856C22.6936 0.367148 22.8119 0.442756 22.8729 0.500185C22.9339 0.558028 22.9977 0.604301 23.0143 0.603475C23.0308 0.603062 23.0446 0.620828 23.0446 0.643551C23.0446 0.666275 22.9945 0.681975 22.9335 0.679083C22.8725 0.675778 22.8451 0.666275 22.8729 0.658425C22.906 0.648509 22.8923 0.61463 22.8325 0.55968C22.7825 0.513406 22.7235 0.477048 22.7013 0.478288C22.6791 0.479527 22.6928 0.498946 22.7316 0.520843C22.7703 0.542741 22.8019 0.584057 22.8014 0.612565C22.801 0.651815 22.7938 0.652641 22.7712 0.61463C22.7515 0.581853 22.7215 0.578272 22.6811 0.603888C22.641 0.629504 22.6376 0.64245 22.671 0.642725C22.6989 0.643138 22.7126 0.662144 22.7013 0.684867C22.6884 0.710896 22.6516 0.707178 22.6003 0.674538C22.5555 0.64603 22.5191 0.581164 22.5196 0.529933C22.5196 0.478701 22.5422 0.437385 22.57 0.438211C22.5979 0.438625 22.6072 0.42499 22.591 0.407224C22.5749 0.389459 22.5341 0.398135 22.5002 0.426643C22.4658 0.455564 22.4521 0.500598 22.4691 0.529106C22.4905 0.565051 22.4788 0.571249 22.4287 0.549764C22.3899 0.533238 22.3398 0.519604 22.3176 0.519604C22.2954 0.519604 22.2772 0.501012 22.2772 0.478288C22.2772 0.455564 22.3273 0.420032 22.3883 0.398961C22.4743 0.369627 22.4812 0.360124 22.4186 0.356819Z" fill="white" fill-opacity="0.99"/>
<path d="M22.9234 0.890621C22.9771 0.854676 22.9771 0.845586 22.9234 0.809641C22.8717 0.774523 22.8729 0.768739 22.9335 0.768326C22.9723 0.767912 23.0042 0.786091 23.0042 0.808815C23.0042 0.831539 23.0405 0.859634 23.085 0.870789C23.1346 0.883597 23.1581 0.91541 23.1455 0.953421C23.1342 0.987713 23.1435 1.01539 23.1657 1.01539C23.1879 1.01539 23.2061 0.996803 23.2061 0.974079C23.2061 0.951355 23.1879 0.895579 23.1657 0.850131C23.1362 0.78981 23.1387 0.767086 23.1758 0.765847C23.2037 0.764607 23.3083 0.862113 23.4089 0.982755C23.5094 1.10298 23.6399 1.27568 23.6992 1.36658C23.759 1.45747 23.8273 1.58762 23.8511 1.65579C23.881 1.74008 23.8818 1.79296 23.8535 1.82106C23.8256 1.84874 23.799 1.81858 23.7715 1.72809C23.7465 1.64505 23.7118 1.60249 23.6807 1.61695C23.6528 1.62935 23.6164 1.61076 23.5999 1.57564C23.5833 1.54011 23.5878 1.50168 23.61 1.49053C23.6322 1.47937 23.6415 1.44219 23.6302 1.4079C23.6189 1.3736 23.5736 1.34592 23.5292 1.34592C23.4848 1.34592 23.4396 1.32733 23.4282 1.30461C23.4169 1.28188 23.4262 1.25379 23.4484 1.24263C23.4735 1.22982 23.4654 1.18231 23.4282 1.11868C23.3947 1.06167 23.345 1.01498 23.3172 1.01457C23.2893 1.01416 23.2303 1.04927 23.1859 1.09266C23.1064 1.17033 23.1043 1.16992 23.0345 1.05217C22.9957 0.986474 22.9412 0.93235 22.9133 0.931937C22.8797 0.931661 22.883 0.917889 22.9234 0.890621Z" fill="white" fill-opacity="0.99"/>
<path d="M23.8164 1.96566C23.8442 2.01565 23.8511 2.01152 23.8515 1.945V1.86237L23.9084 1.945C23.9403 1.99169 23.9767 2.18959 23.9916 2.39948C24.0058 2.60399 24.0017 2.98492 23.9815 3.24645C23.9476 3.69225 23.9347 3.74307 23.7687 4.07277C23.6387 4.331 23.5118 4.50576 23.2881 4.73424C23.1161 4.90983 22.8786 5.10195 22.7417 5.17632C22.6084 5.24904 22.3903 5.3453 22.257 5.39034C22.018 5.47173 21.8754 5.47297 12.0797 5.48536C4.23667 5.49569 2.09983 5.48743 1.93263 5.44653C1.81591 5.41802 1.7206 5.37174 1.7206 5.34324C1.7206 5.3106 1.77916 5.29159 1.87851 5.29159C1.96574 5.29159 2.05177 5.30605 2.07034 5.32382C2.08892 5.34158 2.15314 5.35522 2.2125 5.3548C2.27187 5.35398 2.3478 5.32588 2.38132 5.29159C2.42144 5.25028 2.52334 5.22962 2.68704 5.22962C2.82355 5.22962 2.93219 5.21144 2.93219 5.1883C2.93219 5.16227 3.05335 5.15484 3.25528 5.16764C3.49154 5.18293 3.58362 5.17425 3.59856 5.13666C3.61351 5.09865 3.62522 5.10154 3.64339 5.14699C3.6652 5.20194 3.67207 5.20194 3.7068 5.14699C3.74153 5.09204 3.7484 5.09204 3.76738 5.14699C3.78676 5.20194 3.79323 5.20194 3.82513 5.14699C3.85704 5.09204 3.86592 5.09204 3.90469 5.14699C3.94306 5.20194 3.95033 5.20194 3.96931 5.14699C3.98869 5.09204 3.99516 5.09204 4.02706 5.14699C4.05897 5.20194 4.06745 5.20194 4.10258 5.14699C4.12924 5.10567 4.1427 5.10223 4.14297 5.13666C4.14337 5.16516 4.18941 5.1883 4.24474 5.1883C4.30048 5.1883 4.34732 5.16516 4.34894 5.13666C4.35136 5.09534 4.3554 5.09534 4.36913 5.13666C4.37842 5.16516 4.43173 5.1883 4.48706 5.1883C4.54279 5.1883 4.58843 5.16516 4.58884 5.13666C4.58884 5.10168 4.60324 5.10512 4.63205 5.14699C4.67001 5.20194 4.67728 5.20194 4.69626 5.14699C4.71565 5.09204 4.72211 5.09204 4.75684 5.14699C4.79157 5.20194 4.79844 5.20194 4.81742 5.14699C4.83681 5.09204 4.84327 5.09204 4.878 5.14699C4.91273 5.20194 4.9196 5.20194 4.93858 5.14699C4.95797 5.09204 4.96443 5.09204 4.99633 5.14699C5.02824 5.20194 5.03712 5.20194 5.07589 5.14699C5.11426 5.09204 5.12153 5.09204 5.14051 5.14699C5.1599 5.20194 5.16636 5.20194 5.20109 5.14699C5.23582 5.09204 5.24269 5.09204 5.26167 5.14699C5.28106 5.20194 5.28752 5.20194 5.32225 5.14699C5.35698 5.09204 5.36385 5.09204 5.38283 5.14699C5.40222 5.20194 5.40868 5.20194 5.44341 5.14699C5.47814 5.09204 5.48501 5.09204 5.50399 5.14699C5.52337 5.20194 5.52984 5.20194 5.56457 5.14699C5.5993 5.09204 5.60617 5.09204 5.62515 5.14699C5.64453 5.20194 5.651 5.20194 5.68573 5.14699C5.72046 5.09204 5.72732 5.09204 5.74631 5.14699C5.76569 5.20194 5.77215 5.20194 5.80689 5.14699C5.84162 5.09204 5.84848 5.09204 5.86747 5.14699C5.88685 5.20194 5.89331 5.20194 5.92805 5.14699C5.96278 5.09204 5.96964 5.09204 5.98862 5.14699C6.00801 5.20194 6.01447 5.20194 6.0492 5.14699C6.08394 5.09204 6.0908 5.09204 6.10978 5.14699C6.12917 5.20194 6.13563 5.20194 6.16754 5.14699C6.19944 5.09204 6.20833 5.09204 6.2471 5.14699C6.28546 5.20194 6.29273 5.20194 6.31172 5.14699C6.3311 5.09204 6.33756 5.09204 6.37229 5.14699C6.40703 5.20194 6.41389 5.20194 6.43287 5.14699C6.45226 5.09204 6.45872 5.09204 6.49345 5.14699C6.52819 5.20194 6.53505 5.20194 6.55403 5.14699C6.57342 5.09204 6.57988 5.09204 6.61461 5.14699C6.64934 5.20194 6.65621 5.20194 6.67519 5.14699C6.69458 5.09204 6.70104 5.09204 6.73577 5.14699C6.7705 5.20194 6.77737 5.20194 6.79635 5.14699C6.81574 5.09204 6.8222 5.09204 6.85693 5.14699C6.89166 5.20194 6.89853 5.20194 6.91751 5.14699C6.9369 5.09204 6.94336 5.09204 6.97809 5.14699C7.01282 5.20194 7.01969 5.20194 7.03867 5.14699C7.05805 5.09204 7.06452 5.09204 7.09925 5.14699C7.13398 5.20194 7.14085 5.20194 7.15983 5.14699C7.17921 5.09204 7.18567 5.09204 7.22041 5.14699C7.25514 5.20194 7.262 5.20194 7.28099 5.14699C7.30037 5.09204 7.30683 5.09204 7.33874 5.14699C7.37064 5.20194 7.37953 5.20194 7.4183 5.14699C7.45667 5.09204 7.46394 5.09204 7.48292 5.14699C7.5023 5.20194 7.50877 5.20194 7.5435 5.14699C7.57823 5.09204 7.5851 5.09204 7.60408 5.14699C7.62346 5.20194 7.62992 5.20194 7.66466 5.14699C7.69939 5.09204 7.70625 5.09204 7.72524 5.14699C7.74462 5.20194 7.75108 5.20194 7.78582 5.14699C7.82055 5.09204 7.82741 5.09204 7.8464 5.14699C7.86578 5.20194 7.87224 5.20194 7.90697 5.14699C7.94171 5.09204 7.94857 5.09204 7.96755 5.14699C7.98694 5.20194 7.9934 5.20194 8.02813 5.14699C8.06287 5.09204 8.06973 5.09204 8.08871 5.14699C8.1081 5.20194 8.11456 5.20194 8.14929 5.14699C8.18402 5.09204 8.19089 5.09204 8.20987 5.14699C8.22926 5.20194 8.23572 5.20194 8.27045 5.14699C8.30518 5.09204 8.31205 5.09204 8.33103 5.14699C8.35042 5.20194 8.35688 5.20194 8.39161 5.14699C8.42634 5.09204 8.43321 5.09204 8.45219 5.14699C8.47157 5.20194 8.47804 5.20194 8.50994 5.14699C8.54185 5.09204 8.55073 5.09204 8.5895 5.14699C8.62787 5.20194 8.63514 5.20194 8.65412 5.14699C8.67351 5.09204 8.67997 5.09204 8.7147 5.14699C8.74943 5.20194 8.7563 5.20194 8.77528 5.14699C8.79467 5.09204 8.80113 5.09204 8.83586 5.14699C8.87059 5.20194 8.87746 5.20194 8.89644 5.14699C8.91582 5.09204 8.92229 5.09204 8.95702 5.14699C8.99175 5.20194 8.99862 5.20194 9.0176 5.14699C9.03698 5.09204 9.04345 5.09204 9.07818 5.14699C9.11291 5.20194 9.11978 5.20194 9.13876 5.14699C9.15814 5.09204 9.1646 5.09204 9.19934 5.14699C9.23407 5.20194 9.24093 5.20194 9.25992 5.14699C9.2793 5.09204 9.28576 5.09204 9.3205 5.14699C9.35523 5.20194 9.36209 5.20194 9.38107 5.14699C9.40046 5.09204 9.40692 5.09204 9.44165 5.14699C9.47639 5.20194 9.48325 5.20194 9.50223 5.14699C9.52162 5.09204 9.52808 5.09204 9.56281 5.14699C9.59755 5.20194 9.60441 5.20194 9.62339 5.14699C9.64278 5.09204 9.64924 5.09204 9.68115 5.14699C9.71305 5.20194 9.72194 5.20194 9.76071 5.14699C9.79907 5.09204 9.80634 5.09204 9.82532 5.14699C9.84471 5.20194 9.85117 5.20194 9.8859 5.14699C9.92064 5.09204 9.9275 5.09204 9.94648 5.14699C9.96587 5.20194 9.97233 5.20194 10.0071 5.14699C10.0418 5.09204 10.0487 5.09204 10.0676 5.14699C10.087 5.20194 10.0935 5.20194 10.1282 5.14699C10.163 5.09204 10.1698 5.09204 10.1888 5.14699C10.2082 5.20194 10.2146 5.20194 10.2494 5.14699C10.2841 5.09204 10.291 5.09204 10.31 5.14699C10.3293 5.20194 10.3358 5.20194 10.3705 5.14699C10.4053 5.09204 10.4121 5.09204 10.4311 5.14699C10.4505 5.20194 10.457 5.20194 10.4917 5.14699C10.5264 5.09204 10.5333 5.09204 10.5523 5.14699C10.5717 5.20194 10.5781 5.20194 10.6129 5.14699C10.6476 5.09204 10.6545 5.09204 10.6734 5.14699C10.6928 5.20194 10.6993 5.20194 10.734 5.14699C10.7687 5.09204 10.7756 5.09204 10.7946 5.14699C10.814 5.20194 10.8204 5.20194 10.8523 5.14699C10.8843 5.09204 10.8927 5.09204 10.9287 5.14699C10.9541 5.18582 10.9804 5.19367 10.9994 5.16764C11.0159 5.14492 11.1387 5.12633 11.272 5.12633C11.4052 5.12633 11.5292 5.14492 11.5478 5.16764C11.5688 5.19367 11.589 5.18624 11.6023 5.14699C11.6217 5.09204 11.6282 5.09204 11.6629 5.14699C11.692 5.19285 11.7065 5.19574 11.7194 5.15731C11.7328 5.11641 12.673 5.10567 16.2395 5.10567C18.7164 5.10567 20.7426 5.11972 20.7426 5.13666C20.7426 5.1536 20.8653 5.17343 21.0152 5.18045C21.165 5.18706 21.3786 5.20194 21.4897 5.21268C21.6008 5.22342 21.7046 5.25482 21.7203 5.2825C21.7369 5.31142 21.8136 5.32836 21.902 5.32217C21.986 5.31597 22.064 5.30192 22.0753 5.29035C22.0866 5.2792 22.0591 5.24367 22.0147 5.21185C21.9703 5.18004 21.9477 5.14285 21.9642 5.12963C21.9808 5.11641 22.0402 5.13335 22.0955 5.16764C22.1779 5.21805 22.2247 5.22094 22.3479 5.18252C22.4311 5.15649 22.5082 5.12385 22.5196 5.11021C22.5309 5.09617 22.6266 5.03832 22.7328 4.98172C22.8386 4.92471 22.9069 4.87389 22.8842 4.8681C22.8612 4.86232 22.8426 4.83918 22.8426 4.81646C22.8426 4.79374 22.8697 4.77514 22.9032 4.77514C22.9367 4.77514 22.9638 4.74746 22.9638 4.71317C22.9638 4.67888 22.9909 4.6512 23.0244 4.6512C23.0579 4.6512 23.085 4.62351 23.085 4.58922C23.085 4.55493 23.112 4.52725 23.1455 4.52725C23.1791 4.52725 23.215 4.49006 23.2263 4.44462C23.2398 4.38953 23.2749 4.36543 23.3317 4.37231C23.3822 4.37851 23.4355 4.34918 23.463 4.30001C23.4884 4.25456 23.5316 4.20333 23.5595 4.18639C23.5874 4.16945 23.61 4.11822 23.61 4.07277C23.61 4.02732 23.6282 3.98064 23.6504 3.96948C23.6726 3.95833 23.6908 3.91164 23.6908 3.86619C23.6908 3.82074 23.7178 3.77406 23.7513 3.7629C23.7865 3.75092 23.8034 3.71208 23.7917 3.66994C23.7804 3.63028 23.7869 3.57905 23.8063 3.55632C23.8256 3.5336 23.8394 3.48237 23.8365 3.4427C23.8341 3.40304 23.8232 3.3704 23.8119 3.3704C23.8006 3.3704 23.7869 3.24521 23.7812 3.09152C23.7756 2.93824 23.7618 2.7614 23.7509 2.69902C23.74 2.63663 23.7493 2.5854 23.7715 2.5854C23.7937 2.5854 23.8131 2.61804 23.8147 2.6577C23.8172 2.71885 23.8224 2.71761 23.8495 2.64737C23.8672 2.60193 23.8717 2.49037 23.86 2.39948C23.8483 2.30858 23.8143 2.21108 23.7849 2.18257C23.7554 2.15406 23.7311 2.11233 23.7311 2.08961C23.7311 2.06688 23.7424 2.01565 23.7566 1.97599C23.7784 1.91402 23.7869 1.91236 23.8164 1.96566Z" fill="white" fill-opacity="0.99"/>
<path d="M0.383409 4.22771C0.358369 4.22192 0.322829 4.17565 0.304251 4.12442C0.284462 4.06905 0.286481 4.03146 0.309098 4.03146C0.330503 4.03146 0.347061 4.05459 0.345849 4.0831C0.344638 4.11987 0.362812 4.11698 0.408448 4.07277C0.443584 4.03848 0.471855 4.02485 0.470643 4.04179C0.469835 4.05872 0.482355 4.10541 0.49851 4.14507C0.519107 4.19631 0.513453 4.20829 0.478316 4.18639C0.450854 4.16945 0.428641 4.174 0.428641 4.19672C0.428641 4.21944 0.408044 4.23349 0.383409 4.22771Z" fill="white" fill-opacity="0.99"/>
<path d="M0.500529 4.27233C0.49649 4.23473 0.51951 4.19424 0.55182 4.18267C0.584129 4.1711 0.611995 4.16036 0.613611 4.15871C0.61563 4.15706 0.61563 4.21118 0.613611 4.27935C0.611995 4.34752 0.596648 4.4033 0.58009 4.4033C0.563532 4.4033 0.558685 4.42189 0.569993 4.44462C0.580898 4.46734 0.622092 4.47478 0.660863 4.46114C0.71498 4.44172 0.724269 4.45164 0.701249 4.50246C0.684691 4.53882 0.689133 4.57807 0.711345 4.58922C0.733558 4.60038 0.760617 4.59129 0.771925 4.56856C0.782829 4.54584 0.810292 4.52725 0.832504 4.52725C0.854717 4.52725 0.872891 4.55493 0.872891 4.58922C0.872891 4.62351 0.850274 4.65987 0.822408 4.6702C0.794541 4.68053 0.822004 4.68053 0.882987 4.6702C0.962952 4.65657 0.99405 4.66855 0.99405 4.71317C0.99405 4.74746 0.971433 4.78299 0.943567 4.79291C0.9157 4.80282 0.952452 4.79828 1.02515 4.78258C1.11884 4.76275 1.15721 4.76936 1.1564 4.80613C1.156 4.83464 1.12369 4.87595 1.08492 4.89785C1.04615 4.91975 1.03686 4.93834 1.06473 4.93917C1.09259 4.93999 1.10592 4.959 1.09502 4.98172C1.08371 5.00445 1.10188 5.02304 1.1354 5.02304C1.16852 5.02304 1.18669 4.9999 1.17538 4.97139C1.16192 4.93696 1.19558 4.91975 1.27635 4.91975C1.34299 4.91975 1.39751 4.92925 1.3971 4.94041C1.3967 4.95156 1.43305 5.00279 1.55946 5.14699L1.4484 5.12302C1.36278 5.10443 1.35106 5.10898 1.39791 5.14285C1.43103 5.16723 1.48111 5.18748 1.50898 5.18748C1.53684 5.18789 1.58652 5.21598 1.62004 5.25028C1.67375 5.30523 1.66931 5.31225 1.57965 5.31225C1.52392 5.31225 1.4694 5.28457 1.45849 5.25028C1.44718 5.21598 1.39751 5.18789 1.34743 5.18748C1.29735 5.18706 1.13944 5.08956 0.996473 4.97057C0.853101 4.85158 0.658036 4.65698 0.56232 4.53758C0.466604 4.41817 0.399563 4.29753 0.413294 4.26902C0.43268 4.22977 0.447219 4.23225 0.47347 4.27935C0.502952 4.33182 0.506991 4.331 0.500529 4.27233Z" fill="white" fill-opacity="0.99"/>
<path d="M2.20564 6.73724C2.28318 6.71988 2.51944 6.6922 2.73066 6.67485C2.94148 6.65791 4.56824 6.64923 6.34524 6.65626C8.12223 6.66328 9.67186 6.68435 9.78938 6.70336C9.9065 6.72195 10.0063 6.75624 10.0115 6.77896C10.0164 6.80169 9.96587 6.82648 9.89923 6.83433C9.83259 6.84218 9.76515 6.86986 9.74899 6.8963C9.73324 6.92274 9.66984 6.9496 9.60764 6.95662C9.54585 6.96323 7.93242 6.97398 6.02215 6.98017C3.3203 6.98885 2.53075 6.98017 2.46815 6.94051C2.40232 6.89919 2.39869 6.88556 2.44796 6.86862C2.48107 6.85705 2.44028 6.8459 2.35709 6.84424C2.26864 6.84218 2.21412 6.85829 2.22583 6.88225C2.23674 6.90498 2.20039 6.92357 2.14506 6.92357C2.08933 6.92357 2.03157 6.8963 2.01623 6.86284C2.00088 6.82937 2.00573 6.79466 2.02632 6.78516C2.04732 6.77566 2.12769 6.75418 2.20564 6.73724Z" fill="white" fill-opacity="0.99"/>
<path d="M1.5118 6.92233C1.50776 6.89878 1.54855 6.86284 1.60267 6.84218C1.65639 6.82152 1.71939 6.80375 1.7416 6.8021C1.76422 6.80086 1.78239 6.81987 1.78199 6.84466C1.78199 6.86945 1.69516 6.92522 1.58975 6.9686C1.48434 7.01199 1.39347 7.04049 1.38782 7.03223C1.38216 7.02397 1.33814 7.06115 1.28968 7.11486C1.24121 7.16857 1.2186 7.21278 1.23919 7.21278C1.25979 7.21278 1.27675 7.19419 1.27675 7.17147C1.27675 7.14874 1.30381 7.13015 1.33733 7.13015C1.37045 7.13015 1.39791 7.14874 1.39791 7.17147C1.39791 7.19419 1.35187 7.22683 1.29574 7.24377C1.2396 7.26071 1.18508 7.29789 1.17458 7.3264C1.16408 7.35491 1.13298 7.37846 1.10511 7.37928C1.07482 7.38011 1.08734 7.34623 1.1354 7.29541C1.17983 7.24831 1.20244 7.21072 1.18588 7.21154C1.16933 7.21237 1.09744 7.25451 1.02636 7.30574C0.907623 7.39127 0.901565 7.39209 0.950029 7.31607C0.978703 7.27062 1.08694 7.1694 1.18992 7.0909C1.29331 7.0124 1.40962 6.95166 1.4484 6.95662C1.48717 6.96117 1.51584 6.94588 1.5118 6.92233Z" fill="white" fill-opacity="0.99"/>
<path d="M10.4537 6.95043C10.381 6.9244 10.3124 6.88101 10.3011 6.85416C10.2873 6.82235 10.3124 6.81119 10.3726 6.82276C10.423 6.83226 10.4691 6.85912 10.4747 6.88184C10.4804 6.90498 10.5256 6.92274 10.5757 6.92192C10.6258 6.92068 10.6936 6.9496 10.7272 6.98554C10.7603 7.02149 10.8015 7.05041 10.818 7.04917C10.8346 7.04834 10.9505 7.12643 11.0753 7.22311C11.2001 7.31979 11.3184 7.43134 11.3378 7.47101C11.3572 7.51067 11.3689 7.55116 11.3632 7.56025C11.3576 7.56975 11.3031 7.53257 11.2421 7.47762C11.1811 7.42308 11.1447 7.37763 11.1613 7.37681C11.1779 7.37598 11.1597 7.35739 11.1209 7.33549C11.0821 7.31359 11.0139 7.30492 10.9695 7.31607C10.925 7.32723 10.8887 7.31814 10.8887 7.29541C10.8887 7.27269 10.9113 7.25368 10.9392 7.25327C10.9728 7.253 10.9695 7.2395 10.9291 7.21278C10.8956 7.19088 10.841 7.17271 10.8079 7.17271C10.7538 7.17271 10.7538 7.17766 10.8079 7.21609C10.854 7.24914 10.8443 7.25286 10.7675 7.23055C10.7118 7.21485 10.6621 7.18593 10.6565 7.16609C10.6508 7.14626 10.6007 7.13015 10.5454 7.13015C10.4824 7.13015 10.4444 7.1066 10.4444 7.06818C10.4444 7.03388 10.4764 7.00414 10.5151 7.00207C10.5539 6.99959 10.5264 6.97645 10.4537 6.95043Z" fill="white" fill-opacity="0.99"/>
<path d="M11.3834 7.71973C11.4367 7.74245 11.4476 7.7346 11.4274 7.68791C11.4125 7.6528 11.4214 7.62594 11.4476 7.62594C11.4735 7.62594 11.5365 7.69576 11.5882 7.78088C11.6395 7.86599 11.694 7.95895 11.7093 7.98745C11.7283 8.0234 11.7065 8.03579 11.6367 8.02877C11.5724 8.02216 11.4969 7.95977 11.4246 7.854C11.3398 7.72964 11.3297 7.69659 11.3834 7.71973Z" fill="white" fill-opacity="0.99"/>
<path d="M11.759 8.26634C11.7259 8.22089 11.6984 8.16057 11.6976 8.13206C11.6968 8.10355 11.7146 8.08042 11.7368 8.08042C11.759 8.08042 11.7849 8.09446 11.7942 8.1114C11.8034 8.12834 11.8192 8.18908 11.8293 8.24568C11.839 8.3027 11.8652 8.38615 11.8875 8.4316C11.9097 8.47705 11.9525 8.57951 11.9832 8.65884C12.0284 8.77742 12.0409 9.71529 12.0526 13.906C12.0635 17.6917 12.0546 19.1419 12.0183 19.5249C11.9803 19.9249 11.9416 20.1112 11.8463 20.3512C11.7788 20.5219 11.6746 20.7355 11.6148 20.8264C11.5551 20.9173 11.3628 21.1276 11.1872 21.2932C11.0018 21.4688 10.7671 21.644 10.6262 21.7126C10.4929 21.7771 10.2203 21.87 10.0204 21.9184C9.66055 22.0055 9.61653 22.0064 5.91229 21.9948C2.3999 21.984 2.16364 21.9787 2.09579 21.9105C2.02673 21.8407 2.02754 21.8378 2.11477 21.8382C2.16485 21.8382 2.25006 21.8618 2.30459 21.8903C2.38374 21.9316 2.41605 21.9316 2.46613 21.8903C2.50046 21.8618 2.5469 21.8477 2.56912 21.8593C2.59133 21.8708 2.63656 21.8708 2.67008 21.8593C2.7032 21.8477 2.72137 21.82 2.71047 21.7973C2.69795 21.7721 2.78437 21.756 2.93259 21.756C3.09979 21.756 3.17451 21.7399 3.1737 21.7043C3.1733 21.6676 3.20803 21.6618 3.29486 21.6837C3.36957 21.7027 3.41723 21.6986 3.41723 21.6734C3.41723 21.6461 4.34611 21.632 6.12311 21.632C7.90011 21.632 8.82899 21.6461 8.82899 21.6734C8.82899 21.6961 8.90169 21.7147 8.99054 21.7147C9.07939 21.7147 9.16097 21.6961 9.17228 21.6734C9.18318 21.6506 9.3104 21.632 9.45498 21.632C9.59916 21.632 9.74455 21.6411 9.77807 21.6527C9.81119 21.6643 9.83865 21.6919 9.83865 21.7147C9.83865 21.7374 9.74334 21.7564 9.62662 21.7568C9.50991 21.7568 9.38713 21.7754 9.35402 21.7973C9.30717 21.8283 9.3205 21.8386 9.4146 21.8427C9.48123 21.8456 9.62662 21.8456 9.73769 21.8427C9.84875 21.8399 9.99858 21.8192 10.0709 21.7965C10.1432 21.7742 10.2021 21.7374 10.2021 21.7147C10.2021 21.6919 10.2554 21.6779 10.3209 21.6837C10.4041 21.6911 10.4461 21.6725 10.4622 21.6217C10.478 21.5709 10.5268 21.5494 10.6262 21.5494C10.7336 21.5494 10.7627 21.5345 10.7473 21.4874C10.736 21.4531 10.7453 21.4255 10.7675 21.4255C10.7897 21.4255 10.7986 21.3978 10.7877 21.3635C10.7732 21.3193 10.7966 21.3015 10.8685 21.3015C10.9311 21.3015 10.9695 21.278 10.9695 21.2395C10.9695 21.2052 10.9921 21.178 11.02 21.1784C11.0478 21.1792 11.0842 21.1234 11.1007 21.0544C11.1241 20.9573 11.1532 20.9297 11.232 20.9297C11.3039 20.9297 11.3269 20.9119 11.3128 20.8677C11.3006 20.8309 11.3172 20.8057 11.3531 20.8057C11.3863 20.8057 11.4077 20.7826 11.4004 20.7541C11.3931 20.7256 11.4234 20.6838 11.4678 20.6611C11.5123 20.6384 11.5926 20.5363 11.6467 20.4339C11.713 20.3074 11.7295 20.2413 11.698 20.2273C11.6661 20.2132 11.6714 20.1905 11.7142 20.155C11.7647 20.1137 11.78 20.1137 11.7913 20.155C11.799 20.1835 11.8172 20.1463 11.8317 20.0724C11.8463 19.9984 11.8402 19.9149 11.8184 19.8864C11.797 19.8579 11.7703 19.7885 11.7594 19.7315C11.7485 19.6749 11.755 19.6096 11.7736 19.5869C11.7921 19.5642 11.8087 19.4249 11.8099 19.277C11.8115 19.1138 11.7938 18.9953 11.7647 18.9742C11.7291 18.949 11.7324 18.9345 11.7772 18.9184C11.8309 18.8986 11.8309 18.892 11.7772 18.8564C11.7231 18.8209 11.7231 18.8139 11.7772 18.7945C11.8309 18.7746 11.8309 18.768 11.7772 18.7354C11.7231 18.7027 11.7231 18.6941 11.7772 18.6581C11.8103 18.6354 11.8196 18.6168 11.7974 18.6168C11.7707 18.616 11.757 16.9559 11.757 13.72C11.757 11.0271 11.7707 8.8241 11.7873 8.8241C11.8039 8.8241 11.8083 8.78692 11.7974 8.74147C11.7839 8.68638 11.7974 8.65884 11.8378 8.65884C11.8709 8.65884 11.8984 8.64025 11.8984 8.61752C11.8984 8.5948 11.8802 8.57621 11.858 8.57621C11.8358 8.57621 11.818 8.52497 11.818 8.46259C11.8184 8.4002 11.7917 8.31178 11.759 8.26634Z" fill="white" fill-opacity="0.99"/>
<path d="M0.182285 8.39772C0.180669 8.3341 0.200862 8.24113 0.227114 8.19114C0.267096 8.11636 0.281231 8.11182 0.30829 8.16305C0.32606 8.19734 0.330099 8.2527 0.317579 8.28699C0.304655 8.32129 0.269519 8.38615 0.239633 8.4316C0.187939 8.51051 0.185516 8.50886 0.182285 8.39772Z" fill="white" fill-opacity="0.99"/>
<path d="M0.028009 9.38187C0.0498177 9.04101 0.0772804 8.7109 0.0893962 8.64851C0.101108 8.58612 0.127763 8.53489 0.14836 8.53489C0.169361 8.53489 0.186323 8.70222 0.186323 8.90673C0.186323 9.17653 0.200055 9.27858 0.236806 9.2794C0.270462 9.27968 0.267096 9.29345 0.22671 9.32072C0.181881 9.35047 0.17865 9.36906 0.21419 9.3922C0.248114 9.41409 0.271538 9.75578 0.294155 10.5594C0.311521 11.1845 0.321214 11.8443 0.315963 12.0261C0.310713 12.2079 0.296982 13.5465 0.285674 15.0008C0.274366 16.4552 0.259019 18.1656 0.250941 18.8019C0.243268 19.4382 0.229941 19.9959 0.221459 20.0414C0.212574 20.0914 0.226306 20.1199 0.256999 20.1137C0.284866 20.1079 0.327272 20.1451 0.351907 20.1963C0.38462 20.2649 0.384216 20.2946 0.350292 20.3099C0.323233 20.3219 0.313136 20.3781 0.32606 20.4442C0.338176 20.5074 0.329695 20.5578 0.307482 20.5578C0.28527 20.5578 0.275981 20.5392 0.287289 20.5165C0.298193 20.4938 0.286885 20.4706 0.26225 20.4649C0.23721 20.4591 0.172188 20.2781 0.0175086 19.6695L0.00296954 14.8356C-0.00551159 11.9542 0.00458499 9.75123 0.028009 9.38187Z" fill="white" fill-opacity="0.99"/>
<path d="M0.489221 20.8685C0.422583 20.7826 0.352715 20.6867 0.334137 20.6553C0.311117 20.6161 0.322021 20.5991 0.371293 20.5991C0.410064 20.5991 0.429853 20.6086 0.41491 20.6198C0.400371 20.631 0.410871 20.6665 0.438738 20.6983C0.477105 20.7421 0.501337 20.7446 0.540511 20.7086C0.568782 20.6826 0.605129 20.6747 0.621284 20.6913C0.637439 20.7078 0.62815 20.7495 0.600283 20.7842C0.568378 20.8235 0.564743 20.8549 0.590187 20.8677C0.612399 20.8788 0.639458 20.8698 0.650766 20.847C0.66167 20.8243 0.689133 20.8057 0.711345 20.8057C0.737731 20.806 0.738 20.8301 0.712153 20.878C0.690748 20.9177 0.686306 20.964 0.702057 20.9801C0.718211 20.9966 0.758597 20.9941 0.792118 20.9747C0.840582 20.9466 0.848659 20.9598 0.832504 21.0429C0.817562 21.1193 0.828062 21.1433 0.872891 21.1346C0.906008 21.1284 0.983549 21.1445 1.04453 21.1709C1.1144 21.2011 1.14429 21.2371 1.12531 21.2676C1.1035 21.3027 1.12086 21.3085 1.18588 21.2883C1.25212 21.268 1.27675 21.2771 1.27675 21.3222C1.27675 21.3565 1.24485 21.3957 1.20608 21.4102C1.14509 21.4325 1.14388 21.4412 1.19598 21.4713C1.2497 21.5027 1.2497 21.5068 1.19598 21.5085C1.16246 21.5097 1.06271 21.4577 0.973857 21.3928C0.885007 21.328 0.766675 21.2189 0.711345 21.1503C0.655612 21.0813 0.555858 20.9549 0.489221 20.8685Z" fill="white" fill-opacity="0.99"/>
<path d="M1.24646 21.5527C1.29358 21.5505 1.30826 21.5287 1.29049 21.4874C1.27595 21.4531 1.28039 21.4246 1.30058 21.4238C1.32077 21.4226 1.35995 21.4507 1.38782 21.4858C1.4282 21.5366 1.4282 21.5535 1.38782 21.5705C1.35995 21.5816 1.38741 21.5816 1.4484 21.5705C1.50938 21.5589 1.55946 21.568 1.55946 21.5907C1.55946 21.6134 1.53684 21.6415 1.50898 21.6531C1.48111 21.6643 1.51301 21.6638 1.57965 21.6519C1.66971 21.6353 1.68506 21.6403 1.64023 21.6713C1.59056 21.706 1.59621 21.7134 1.67052 21.7138C1.7206 21.7143 1.78845 21.7423 1.82197 21.7766C1.87568 21.8316 1.86882 21.8386 1.76139 21.8386C1.69475 21.8386 1.61681 21.8155 1.58854 21.787C1.56027 21.7585 1.51059 21.7291 1.47747 21.7217C1.44476 21.7143 1.39064 21.6841 1.35753 21.6548C1.32401 21.6254 1.26948 21.5911 1.23637 21.5787C1.18831 21.5606 1.19033 21.5552 1.24646 21.5527Z" fill="white" fill-opacity="0.99"/>
<path d="M2.68071 0.149722C2.70857 0.149309 2.72028 0.130303 2.70696 0.10758C2.6908 0.0803111 3.1399 0.069569 5.37649 0.0856822L2.83215 0.126998L5.41688 0.171206L4.10432 0.184014C2.91172 0.195996 2.81398 0.202193 3.03409 0.250946C3.16736 0.28028 3.29014 0.297633 3.30669 0.288543C3.32325 0.279867 3.33698 0.300525 3.33698 0.334817C3.33698 0.369109 3.35516 0.396791 3.37737 0.396791C3.39958 0.396791 3.42543 0.373654 3.43472 0.345146C3.44401 0.316638 3.4533 0.326141 3.45491 0.365804C3.45653 0.405467 3.47632 0.438107 3.49853 0.438107C3.52074 0.438107 3.54093 0.405467 3.54376 0.365804C3.5482 0.296806 3.54901 0.296806 3.56395 0.365804C3.57244 0.405467 3.59748 0.438107 3.61969 0.438107C3.6419 0.438107 3.66048 0.405467 3.66129 0.365804C3.6625 0.297633 3.66573 0.297633 3.71177 0.364151C3.73883 0.402988 3.81112 0.435628 3.8721 0.436454C3.93309 0.437281 3.98316 0.452154 3.98276 0.469094C3.98276 0.486033 4.17823 0.515781 4.41691 0.534786C4.66731 0.554618 4.86439 0.589736 4.88176 0.617418C4.90357 0.652123 4.92174 0.647992 4.94759 0.603371C4.97869 0.54842 4.98596 0.54842 5.01302 0.603371C5.04007 0.658321 5.04775 0.658321 5.08167 0.603371C5.116 0.54842 5.12246 0.54842 5.14144 0.603371C5.16083 0.658321 5.16729 0.658321 5.1992 0.603371C5.22585 0.557097 5.24281 0.554205 5.26543 0.590976C5.28643 0.625681 5.5449 0.647992 6.12364 0.664518C6.70762 0.681458 6.96125 0.703355 6.98508 0.738887C7.01012 0.776897 7.02345 0.774005 7.0396 0.727318C7.05899 0.672368 7.06545 0.672368 7.10018 0.727318C7.13491 0.782269 7.14178 0.782269 7.16076 0.727318C7.18014 0.672368 7.18661 0.672368 7.22134 0.727318C7.25607 0.782269 7.26294 0.782269 7.28192 0.727318C7.3013 0.672368 7.30777 0.672368 7.33967 0.727318C7.37158 0.782269 7.38046 0.782269 7.41923 0.727318C7.4576 0.672368 7.46487 0.672368 7.48385 0.727318C7.50323 0.782269 7.5097 0.782269 7.54443 0.727318C7.57916 0.672368 7.58603 0.672368 7.60501 0.727318C7.62439 0.782269 7.63086 0.782269 7.66559 0.727318C7.70032 0.672368 7.70719 0.672368 7.72617 0.727318C7.74555 0.782269 7.75202 0.782269 7.78392 0.727318C7.81583 0.672368 7.8239 0.672368 7.85581 0.727318C7.88771 0.782269 7.89458 0.782269 7.91639 0.727318C7.9382 0.672368 7.94385 0.672368 7.96566 0.727318C7.98747 0.782269 7.99433 0.782269 8.02906 0.727318C8.0638 0.672368 8.07066 0.672368 8.08964 0.727318C8.10903 0.782269 8.11549 0.782269 8.15022 0.727318C8.18496 0.672368 8.19182 0.672368 8.2108 0.727318C8.23019 0.782269 8.23665 0.782269 8.27138 0.727318C8.30612 0.672368 8.31298 0.672368 8.33196 0.727318C8.35135 0.782269 8.35781 0.782269 8.38972 0.727318C8.42162 0.672368 8.4301 0.672368 8.46605 0.727318C8.49835 0.777311 8.51249 0.77855 8.53672 0.735168C8.56136 0.69096 9.30891 0.6765 12.4845 0.659147C15.4141 0.643034 16.4056 0.625681 16.4165 0.589323C16.4262 0.557372 16.444 0.562055 16.4698 0.603371C16.5045 0.658321 16.5114 0.658321 16.5304 0.603371C16.5498 0.54842 16.5562 0.54842 16.5881 0.603371C16.62 0.658321 16.6289 0.658321 16.6677 0.603371C16.7061 0.54842 16.7133 0.54842 16.7323 0.603371C16.7517 0.658321 16.7582 0.658321 16.7929 0.603371C16.8276 0.54842 16.8345 0.54842 16.8535 0.603371C16.8729 0.658321 16.8793 0.658321 16.9141 0.603371C16.9488 0.54842 16.9557 0.54842 16.9746 0.603371C16.994 0.658321 17.0005 0.658321 17.0352 0.603371C17.0699 0.54842 17.0768 0.54842 17.0958 0.603371C17.1152 0.658321 17.1216 0.658321 17.1564 0.603371C17.1911 0.54842 17.198 0.54842 17.217 0.603371C17.2363 0.658321 17.2428 0.658321 17.2775 0.603371C17.3123 0.54842 17.3191 0.54842 17.3381 0.603371C17.3575 0.658321 17.364 0.658321 17.3987 0.603371C17.4334 0.54842 17.4403 0.54842 17.4593 0.603371C17.4787 0.658321 17.4851 0.658321 17.5198 0.603371C17.5546 0.54842 17.5614 0.54842 17.5804 0.603371C17.5954 0.645926 17.6103 0.650471 17.6281 0.618244C17.6463 0.584365 18.1232 0.562881 19.2694 0.543876C20.1579 0.529415 20.8893 0.508757 20.8949 0.498428C20.9006 0.488099 20.8957 0.460831 20.8848 0.438107C20.8739 0.415383 20.71 0.396791 20.5214 0.396791C20.3194 0.396791 20.1781 0.379851 20.1781 0.355475C20.1781 0.331512 20.3097 0.313746 20.4911 0.313333C20.6631 0.31292 20.922 0.293088 21.0666 0.269538C21.2112 0.245988 21.3836 0.218719 21.4502 0.209217C21.5169 0.199301 21.6122 0.181948 21.6623 0.17038C21.7124 0.158398 21.7531 0.167488 21.7531 0.190211C21.7531 0.212935 21.8214 0.231114 21.9046 0.230701C22.0173 0.230288 22.0407 0.219959 21.9955 0.190211C21.9551 0.163494 21.9517 0.149997 21.9854 0.149722C22.0132 0.149309 22.0447 0.176577 22.056 0.210869C22.0706 0.255077 22.0964 0.262101 22.1469 0.236072C22.1897 0.213762 22.2656 0.215827 22.3387 0.24103C22.4341 0.27367 22.447 0.290196 22.3993 0.318291C22.35 0.347625 22.3537 0.355062 22.4195 0.357954C22.4821 0.361259 22.4752 0.370762 22.3892 0.400096C22.3282 0.421167 22.2782 0.456699 22.2782 0.479423C22.2782 0.502147 22.2963 0.520739 22.3185 0.520739C22.3408 0.520739 22.3908 0.534373 22.4296 0.550899C22.4797 0.572384 22.4914 0.566186 22.47 0.530241C22.453 0.501733 22.4668 0.456699 22.5011 0.427778C22.535 0.39927 22.5758 0.390594 22.592 0.408359C22.6081 0.426125 22.5988 0.43976 22.571 0.439346C22.5431 0.43852 22.5205 0.479836 22.5205 0.531068C22.5201 0.582299 22.5564 0.647165 22.6013 0.675673C22.6525 0.708313 22.6893 0.712031 22.7022 0.686002C22.7135 0.663279 22.6998 0.644273 22.6719 0.64386C22.6385 0.643585 22.6419 0.630639 22.682 0.605023C22.7224 0.579407 22.7524 0.582988 22.7721 0.615765C22.7947 0.653776 22.802 0.65295 22.8024 0.6137C22.8028 0.585192 22.7713 0.543876 22.7325 0.521978C22.6937 0.500081 22.68 0.480662 22.7022 0.479423C22.7244 0.478183 22.7971 0.524044 22.8638 0.581886C22.9304 0.639315 23.0075 0.676913 23.0354 0.665758C23.0633 0.654189 23.0988 0.667823 23.115 0.696331C23.1311 0.724839 23.1485 0.766568 23.1533 0.789292L23.1848 0.923569C23.197 0.974801 23.1889 1.01653 23.1667 1.01653C23.1444 1.01653 23.1352 0.988848 23.1465 0.954556C23.159 0.916545 23.1356 0.884732 23.0859 0.871924C23.0415 0.860769 23.0051 0.832674 23.0051 0.80995C23.0051 0.787226 22.9732 0.769047 22.9344 0.769461C22.8739 0.769874 22.8726 0.775658 22.9243 0.810776C22.9781 0.846721 22.9781 0.855811 22.9243 0.891756C22.884 0.919024 22.8806 0.932796 22.9142 0.933072C22.9421 0.933485 22.9966 0.987609 23.0354 1.0533C23.1053 1.17105 23.1073 1.17146 23.1869 1.09379C23.2313 1.05041 23.2902 1.01529 23.3181 1.0157C23.346 1.01612 23.3957 1.0628 23.4292 1.11982C23.4663 1.18345 23.4744 1.23096 23.4494 1.24377C23.4272 1.25492 23.4179 1.28302 23.4292 1.30574C23.4405 1.32846 23.4857 1.34706 23.5301 1.34706C23.5746 1.34706 23.6198 1.37474 23.6311 1.40903C23.6424 1.44332 23.6331 1.48051 23.6109 1.49166C23.5887 1.50282 23.5843 1.54124 23.6008 1.57677C23.6174 1.61189 23.6537 1.63048 23.6816 1.61809C23.7123 1.60404 23.7478 1.64371 23.7725 1.7189C23.7947 1.78707 23.831 1.83335 23.8532 1.82219C23.8754 1.81103 23.8936 1.81103 23.8936 1.82219C23.8936 1.83335 23.9045 1.87549 23.9174 1.91515C23.9376 1.97589 23.9348 1.97754 23.8981 1.92548C23.8613 1.87301 23.8544 1.87631 23.8532 1.94614C23.8524 2.01307 23.8452 2.01679 23.8173 1.9668C23.7878 1.9135 23.7793 1.91515 23.7575 1.97712C23.7434 2.01679 23.7321 2.06802 23.7321 2.09074C23.7321 2.11347 23.7563 2.1552 23.7858 2.1837C23.8153 2.21221 23.8492 2.30972 23.8609 2.40061C23.8726 2.49151 23.8682 2.60306 23.8504 2.64851C23.8233 2.71875 23.8181 2.71998 23.8157 2.65884C23.8141 2.61917 23.7947 2.58653 23.7725 2.58653C23.7502 2.58653 23.741 2.63777 23.7519 2.70015C23.7628 2.76254 23.7765 2.93937 23.7822 3.09265C23.7878 3.24635 23.8015 3.37154 23.8128 3.37154C23.8242 3.37154 23.8351 3.40418 23.8375 3.44384C23.8403 3.4835 23.8266 3.53473 23.8072 3.55746C23.7878 3.58018 23.7813 3.63141 23.7926 3.67108C23.8044 3.71322 23.7874 3.75206 23.7523 3.76404C23.7187 3.77519 23.6917 3.82188 23.6917 3.86733C23.6917 3.91278 23.6735 3.95946 23.6513 3.97062C23.6291 3.98177 23.6109 4.02846 23.6109 4.07391C23.6109 4.11935 23.5883 4.17059 23.5604 4.18753C23.5326 4.20447 23.4893 4.2557 23.4639 4.30115C23.4364 4.35031 23.3831 4.37964 23.3327 4.37345C23.2758 4.36656 23.2407 4.39066 23.2272 4.44575C23.2159 4.4912 23.18 4.52838 23.1465 4.52838C23.1129 4.52838 23.0859 4.55606 23.0859 4.59036C23.0859 4.62465 23.0588 4.65233 23.0253 4.65233C22.9918 4.65233 22.9647 4.68001 22.9647 4.7143C22.9647 4.7486 22.9377 4.77628 22.9042 4.77628C22.8706 4.77628 22.8436 4.79487 22.8436 4.81759C22.8436 4.84032 22.8622 4.86345 22.8852 4.86924C22.9078 4.87502 22.8395 4.92584 22.7337 4.98286C22.6275 5.03987 22.5318 5.0973 22.5205 5.11135C22.5092 5.12498 22.432 5.15762 22.3488 5.18365C22.2257 5.22208 22.1788 5.21918 22.0964 5.16878C22.0411 5.13449 21.9817 5.11755 21.9652 5.13077C21.9486 5.14399 21.9712 5.18117 22.0157 5.21299C22.0601 5.2448 22.0875 5.28033 22.0762 5.29149C22.0649 5.30306 21.987 5.3171 21.903 5.3233C21.8145 5.3295 21.7378 5.31256 21.7212 5.28364C21.7055 5.25596 21.6017 5.22456 21.4906 5.21381C21.3796 5.20307 21.1659 5.1882 21.0161 5.18159C20.8663 5.17456 20.7435 5.15473 20.7435 5.13779C20.7435 5.12085 18.7173 5.10681 16.2404 5.10681C12.6755 5.10681 11.7333 5.11755 11.7171 5.15845C11.7022 5.19646 11.6905 5.19357 11.6723 5.14812C11.6505 5.09317 11.6436 5.09317 11.6117 5.14812C11.5891 5.18696 11.5645 5.19481 11.5455 5.16878C11.5289 5.14606 11.4062 5.12746 11.2729 5.12746C11.1396 5.12746 11.0168 5.14606 11.0003 5.16878C10.9813 5.19481 10.9538 5.18696 10.9264 5.14812C10.888 5.09317 10.8807 5.09317 10.8618 5.14812C10.8424 5.20307 10.8359 5.20307 10.8012 5.14812C10.7664 5.09317 10.7596 5.09317 10.7406 5.14812C10.7212 5.20307 10.7148 5.20307 10.68 5.14812C10.6453 5.09317 10.6384 5.09317 10.6194 5.14812C10.6001 5.20307 10.5936 5.20307 10.5589 5.14812C10.5241 5.09317 10.5173 5.09317 10.4983 5.14812C10.4789 5.20307 10.4724 5.20307 10.4377 5.14812C10.403 5.09317 10.3961 5.09317 10.3771 5.14812C10.3577 5.20307 10.3513 5.20307 10.3165 5.14812C10.2818 5.09317 10.2749 5.09317 10.256 5.14812C10.2366 5.20307 10.2301 5.20307 10.1954 5.14812C10.1607 5.09317 10.1538 5.09317 10.1348 5.14812C10.1154 5.20307 10.109 5.20307 10.0742 5.14812C10.0395 5.09317 10.0326 5.09317 10.0136 5.14812C9.99426 5.20307 9.9878 5.20307 9.95307 5.14812C9.91834 5.09317 9.91147 5.09317 9.89249 5.14812C9.8731 5.20307 9.86664 5.20307 9.83474 5.14812C9.80283 5.09317 9.79395 5.09317 9.75518 5.14812C9.71681 5.20307 9.70954 5.20307 9.69056 5.14812C9.67117 5.09317 9.66471 5.09317 9.62998 5.14812C9.59525 5.20307 9.58838 5.20307 9.5694 5.14812C9.55001 5.09317 9.54355 5.09317 9.50882 5.14812C9.47409 5.20307 9.46722 5.20307 9.44824 5.14812C9.42885 5.09317 9.42239 5.09317 9.38766 5.14812C9.35293 5.20307 9.34606 5.20307 9.32708 5.14812C9.3077 5.09317 9.30123 5.09317 9.2665 5.14812C9.23177 5.20307 9.2249 5.20307 9.20592 5.14812C9.18654 5.09317 9.18007 5.09317 9.14534 5.14812C9.11061 5.20307 9.10374 5.20307 9.08476 5.14812C9.06538 5.09317 9.05892 5.09317 9.02418 5.14812C8.98945 5.20307 8.98259 5.20307 8.9636 5.14812C8.94422 5.09317 8.93776 5.09317 8.90302 5.14812C8.86829 5.20307 8.86143 5.20307 8.84245 5.14812C8.82306 5.09317 8.8166 5.09317 8.78187 5.14812C8.74713 5.20307 8.74027 5.20307 8.72129 5.14812C8.7019 5.09317 8.69544 5.09317 8.66353 5.14812C8.63163 5.20307 8.62274 5.20307 8.58397 5.14812C8.54561 5.09317 8.53834 5.09317 8.51935 5.14812C8.49997 5.20307 8.49351 5.20307 8.45878 5.14812C8.42404 5.09317 8.41718 5.09317 8.3982 5.14812C8.37881 5.20307 8.37235 5.20307 8.33762 5.14812C8.30288 5.09317 8.29602 5.09317 8.27704 5.14812C8.25765 5.20307 8.25119 5.20307 8.21646 5.14812C8.18173 5.09317 8.17486 5.09317 8.15588 5.14812C8.13649 5.20307 8.13003 5.20307 8.0953 5.14812C8.06057 5.09317 8.0537 5.09317 8.03472 5.14812C8.01533 5.20307 8.00887 5.20307 7.97414 5.14812C7.93941 5.09317 7.93254 5.09317 7.91356 5.14812C7.89417 5.20307 7.88771 5.20307 7.85298 5.14812C7.81825 5.09317 7.81138 5.09317 7.7924 5.14812C7.77302 5.20307 7.76655 5.20307 7.73182 5.14812C7.69709 5.09317 7.69022 5.09317 7.67124 5.14812C7.65186 5.20307 7.64539 5.20307 7.61066 5.14812C7.57593 5.09317 7.56906 5.09317 7.55008 5.14812C7.5307 5.20307 7.52424 5.20307 7.49233 5.14812C7.46043 5.09317 7.45154 5.09317 7.41277 5.14812C7.3744 5.20307 7.36713 5.20307 7.34815 5.14812C7.32877 5.09317 7.3223 5.09317 7.28757 5.14812C7.25284 5.20307 7.24597 5.20307 7.22699 5.14812C7.20761 5.09317 7.20115 5.09317 7.16641 5.14812C7.13168 5.20307 7.12482 5.20307 7.10583 5.14812C7.08645 5.09317 7.07999 5.09317 7.04525 5.14812C7.01052 5.20307 7.00366 5.20307 6.98467 5.14812C6.96529 5.09317 6.95883 5.09317 6.9241 5.14812C6.88936 5.20307 6.8825 5.20307 6.86352 5.14812C6.84413 5.09317 6.83767 5.09317 6.80294 5.14812C6.7682 5.20307 6.76134 5.20307 6.74236 5.14812C6.72297 5.09317 6.71651 5.09317 6.68178 5.14812C6.64705 5.20307 6.64018 5.20307 6.6212 5.14812C6.60181 5.09317 6.59535 5.09317 6.56062 5.14812C6.52589 5.20307 6.51902 5.20307 6.50004 5.14812C6.48065 5.09317 6.47419 5.09317 6.43946 5.14812C6.40473 5.20307 6.39786 5.20307 6.37888 5.14812C6.35949 5.09317 6.35303 5.09317 6.32113 5.14812C6.28922 5.20307 6.28034 5.20307 6.24157 5.14812C6.2032 5.09317 6.19593 5.09317 6.17695 5.14812C6.15756 5.20307 6.1511 5.20307 6.11637 5.14812C6.08164 5.09317 6.07477 5.09317 6.05579 5.14812C6.0364 5.20307 6.02994 5.20307 5.99521 5.14812C5.96048 5.09317 5.95361 5.09317 5.93463 5.14812C5.91525 5.20307 5.90878 5.20307 5.87405 5.14812C5.83932 5.09317 5.83245 5.09317 5.81347 5.14812C5.79409 5.20307 5.78762 5.20307 5.75289 5.14812C5.71816 5.09317 5.71129 5.09317 5.69231 5.14812C5.67293 5.20307 5.66647 5.20307 5.63173 5.14812C5.597 5.09317 5.59014 5.09317 5.57115 5.14812C5.55177 5.20307 5.54531 5.20307 5.51057 5.14812C5.47584 5.09317 5.46898 5.09317 5.45 5.14812C5.43061 5.20307 5.42415 5.20307 5.39224 5.14812C5.36034 5.09317 5.35226 5.09317 5.32036 5.14812C5.28845 5.20307 5.28158 5.20307 5.25978 5.14812C5.23797 5.09317 5.23231 5.09317 5.2105 5.14812C5.1887 5.20307 5.18183 5.20307 5.14992 5.14812C5.11802 5.09317 5.10913 5.09317 5.07036 5.14812C5.032 5.20307 5.02473 5.20307 5.00575 5.14812C4.98636 5.09317 4.9799 5.09317 4.94517 5.14812C4.91043 5.20307 4.90357 5.20307 4.88459 5.14812C4.8652 5.09317 4.85874 5.09317 4.82401 5.14812C4.78928 5.20307 4.78241 5.20307 4.76343 5.14812C4.74404 5.09317 4.73758 5.09317 4.70568 5.14812C4.67377 5.20307 4.66529 5.20307 4.63015 5.14812C4.6035 5.10681 4.59004 5.10336 4.58977 5.13779C4.58936 5.1663 4.54373 5.18944 4.48799 5.18944C4.43266 5.18944 4.38541 5.1663 4.3838 5.13779C4.38137 5.09648 4.37733 5.09648 4.3636 5.13779C4.35431 5.1663 4.30141 5.18944 4.24568 5.18944C4.19035 5.18944 4.14431 5.1663 4.1439 5.13779C4.1439 5.10281 4.1295 5.10625 4.10069 5.14812C4.06273 5.20307 4.05546 5.20307 4.03647 5.14812C4.01709 5.09317 4.01063 5.09317 3.97872 5.14812C3.94682 5.20307 3.93793 5.20307 3.89916 5.14812C3.86079 5.09317 3.85352 5.09317 3.83454 5.14812C3.81516 5.20307 3.8087 5.20307 3.77396 5.14812C3.73923 5.09317 3.73237 5.09317 3.71338 5.14812C3.694 5.20307 3.68754 5.20307 3.6528 5.14812C3.62373 5.10226 3.60919 5.09937 3.59626 5.13779C3.58374 5.1758 3.49368 5.18407 3.25621 5.16878C3.05428 5.15597 2.93312 5.16382 2.93312 5.18944C2.93312 5.21257 2.82448 5.23075 2.68798 5.23075C2.52428 5.23075 2.42237 5.25141 2.38225 5.29273C2.34873 5.32702 2.2728 5.35511 2.21344 5.35594C2.15407 5.35635 2.08985 5.34272 2.07128 5.32495C2.0527 5.30719 1.96668 5.29273 1.87944 5.29273C1.79261 5.29273 1.72153 5.30677 1.72153 5.32371C1.72153 5.34065 1.70053 5.3547 1.67428 5.3547C1.64843 5.3547 1.63955 5.3452 1.65409 5.33404C1.66903 5.32289 1.65409 5.2857 1.62057 5.25141C1.58422 5.21423 1.51556 5.19687 1.44892 5.20844C1.38794 5.21877 1.36492 5.21671 1.39844 5.2039C1.45215 5.18324 1.45215 5.1758 1.39844 5.14027C1.35442 5.11094 1.36815 5.10681 1.55999 5.14812L1.47841 5.05516C1.43358 5.00393 1.39723 4.9527 1.39763 4.94154C1.39804 4.93039 1.34352 4.92088 1.27688 4.92088C1.19611 4.92088 1.16258 4.9381 1.17632 4.97253C1.18722 5.00104 1.16945 5.02417 1.13593 5.02417C1.10281 5.02417 1.08464 5.00558 1.09554 4.98286C1.10645 4.96013 1.09312 4.94113 1.06525 4.9403C1.03739 4.93948 1.04668 4.92088 1.08545 4.89899C1.12422 4.87709 1.15653 4.83577 1.15693 4.80726C1.15774 4.77049 1.11937 4.76388 1.02567 4.78371C0.952979 4.79941 0.916228 4.80396 0.944094 4.79404C0.971961 4.78413 0.994577 4.7486 0.994577 4.7143C0.994577 4.66968 0.96348 4.6577 0.883515 4.67134C0.822532 4.68166 0.795069 4.68166 0.822935 4.67134C0.850802 4.66101 0.873418 4.62465 0.873418 4.59036C0.873418 4.55606 0.855245 4.52838 0.833032 4.52838C0.81082 4.52838 0.783357 4.54697 0.772453 4.5697C0.761548 4.59242 0.734086 4.60151 0.711873 4.59036C0.689661 4.5792 0.685218 4.53995 0.701777 4.50359C0.725201 4.45277 0.715508 4.44286 0.66139 4.46228C0.622619 4.47591 0.581425 4.46847 0.570521 4.44575C0.559617 4.42303 0.564059 4.40443 0.580618 4.40443C0.597176 4.40443 0.610907 4.35114 0.610907 4.28586C0.610907 4.21025 0.592733 4.17265 0.560424 4.18257C0.532558 4.19083 0.508326 4.23049 0.506711 4.27016C0.505095 4.30982 0.495806 4.31932 0.486517 4.29082C0.477229 4.26231 0.451381 4.24867 0.429169 4.25983C0.406956 4.27098 0.398071 4.25281 0.408976 4.21851C0.41988 4.18422 0.447343 4.16604 0.469555 4.1772C0.491768 4.18835 0.509538 4.18381 0.509134 4.16687C0.509134 4.14993 0.492979 4.1082 0.473998 4.07391C0.447747 4.02681 0.433208 4.02433 0.414226 4.06358C0.394033 4.10489 0.377474 4.10489 0.332242 4.06358C0.283778 4.01937 0.284182 3.99128 0.333453 3.86733C0.364955 3.788 0.390398 3.71818 0.38959 3.71239C0.389186 3.70661 0.361724 3.70206 0.328203 3.70206C0.295086 3.70206 0.262777 3.7347 0.257123 3.77437C0.251469 3.81403 0.242988 3.61447 0.238142 3.33022C0.233699 3.04638 0.21916 2.62785 0.206236 2.40061C0.191294 2.14363 0.198159 1.97175 0.223603 1.94614C0.249854 1.91928 0.250661 1.87962 0.225622 1.83252C0.200313 1.78487 0.200852 1.76765 0.227237 1.78087C0.24945 1.79203 0.295894 1.73171 0.330222 1.6466C0.364551 1.56149 0.441689 1.41729 0.501864 1.3264C0.561636 1.2355 0.674718 1.0909 0.752259 1.00537C0.849994 0.897127 0.901689 0.865314 0.919863 0.902085C0.93844 0.938856 1.00064 0.905803 1.13068 0.789292C1.23205 0.698397 1.31565 0.600892 1.31646 0.572384C1.31726 0.542636 1.34755 0.529828 1.38834 0.542636C1.42873 0.555031 1.49375 0.528589 1.53979 0.480662C1.60481 0.413731 1.63107 0.40712 1.67266 0.448436C1.70174 0.476944 1.72436 0.486033 1.72315 0.469094C1.72234 0.452154 1.72638 0.41497 1.73244 0.386462C1.73849 0.357954 1.77484 0.339362 1.81321 0.345146C1.85157 0.35093 1.91014 0.327793 1.94366 0.293501C1.98687 0.249293 2.0216 0.243509 2.06481 0.272843C2.10682 0.301351 2.12863 0.299699 2.13549 0.267059C2.14195 0.236072 2.251 0.221612 2.44848 0.224504C2.65567 0.227809 2.7324 0.217067 2.6908 0.189798C2.65042 0.163356 2.64705 0.149997 2.68071 0.149722Z" fill="white"/>
<path d="M1.77524 6.87967C1.80109 6.84373 1.84956 6.80324 1.88308 6.79002C1.9166 6.77679 1.95739 6.7644 1.97395 6.76275C1.9905 6.76109 2.01352 6.79663 2.02443 6.84207C2.03789 6.89716 2.07828 6.92471 2.14559 6.92471C2.20132 6.92471 2.23726 6.90611 2.22636 6.88339C2.21465 6.85943 2.26917 6.84331 2.35762 6.84538C2.44081 6.84703 2.48201 6.85819 2.44848 6.86976C2.39921 6.88669 2.40325 6.90033 2.46868 6.94164C2.53168 6.98131 3.32083 6.98998 6.02267 6.98131C7.93295 6.97511 9.5488 6.96437 9.61382 6.95776C9.67844 6.95073 9.73741 6.92223 9.74508 6.89372C9.75235 6.86521 9.81293 6.84207 9.87957 6.84207C9.9462 6.84207 10.01 6.82348 10.0209 6.80076C10.0318 6.77803 10.0912 6.76977 10.1522 6.78217C10.2132 6.79497 10.2814 6.82927 10.3036 6.85819C10.3258 6.88752 10.3985 6.93132 10.4652 6.95611C10.5354 6.98213 10.5564 7.00238 10.5157 7.00403C10.4769 7.00568 10.445 7.03502 10.445 7.06931C10.445 7.10773 10.4829 7.13128 10.5459 7.13128C10.6017 7.13128 10.6513 7.1474 10.657 7.16723C10.6627 7.18706 10.7127 7.21598 10.7681 7.23168C10.8452 7.25399 10.8545 7.25027 10.8085 7.21722C10.7547 7.1788 10.7547 7.17384 10.8085 7.17384C10.842 7.17384 10.8961 7.19202 10.9296 7.21392C10.97 7.24063 10.9734 7.25413 10.9397 7.25441C10.9118 7.25482 10.8892 7.27382 10.8892 7.29655C10.8892 7.31927 10.9256 7.32836 10.97 7.31721C11.0144 7.30605 11.0827 7.31473 11.1214 7.33662C11.1602 7.35852 11.1739 7.3767 11.1517 7.3767C11.1295 7.37629 11.1655 7.41884 11.2317 7.4709C11.2975 7.52255 11.3686 7.5651 11.3896 7.5651C11.4106 7.5651 11.4292 7.60435 11.4312 7.65269C11.4336 7.71384 11.4171 7.73243 11.3755 7.71467C11.3391 7.69897 11.3585 7.75681 11.426 7.86464C11.4861 7.96132 11.5536 8.03073 11.5758 8.01958C11.598 8.00842 11.6432 8.00842 11.6768 8.01958C11.7103 8.03073 11.726 8.06337 11.7123 8.09188C11.6986 8.12039 11.7119 8.18484 11.7426 8.23483C11.7729 8.28524 11.8072 8.31953 11.8181 8.31127C11.829 8.30342 11.8339 8.35961 11.8282 8.43687C11.8226 8.51413 11.8363 8.57734 11.8585 8.57734C11.8807 8.57734 11.8989 8.59593 11.8989 8.61866C11.8989 8.64138 11.8718 8.65997 11.8383 8.65997C11.7979 8.65997 11.7845 8.68752 11.7979 8.74261C11.8088 8.78805 11.8044 8.82524 11.7878 8.82524C11.7713 8.82524 11.7575 11.0282 11.7575 13.7212C11.7575 16.957 11.7713 18.6171 11.7979 18.6179C11.8201 18.6179 11.8112 18.6382 11.7777 18.6621C11.724 18.701 11.724 18.7084 11.7777 18.7278C11.8314 18.7477 11.8314 18.7543 11.7777 18.7898C11.724 18.8253 11.724 18.8324 11.7777 18.8518C11.8314 18.8716 11.8314 18.8782 11.7777 18.9109C11.7329 18.9381 11.7297 18.9559 11.7652 18.9786C11.7947 18.9976 11.8121 19.1133 11.8108 19.2782C11.8092 19.4261 11.7931 19.5653 11.7745 19.588C11.7555 19.6108 11.7495 19.6756 11.76 19.7326C11.7709 19.7892 11.7975 19.8591 11.8193 19.8876C11.8407 19.9161 11.8476 19.9995 11.8347 20.0735C11.8201 20.1541 11.7999 20.1863 11.7842 20.1541C11.7632 20.1115 11.747 20.1136 11.707 20.1644C11.6703 20.2111 11.6691 20.2313 11.703 20.2388C11.7325 20.2454 11.7127 20.3173 11.6493 20.435C11.5944 20.5375 11.5128 20.6395 11.4684 20.6622C11.4239 20.685 11.3936 20.7267 11.4009 20.7552C11.4082 20.7837 11.3872 20.8069 11.3537 20.8069C11.3177 20.8069 11.3012 20.8321 11.3133 20.8688C11.3278 20.913 11.3044 20.9308 11.2325 20.9308C11.1538 20.9308 11.1247 20.9585 11.1013 21.0556C11.0847 21.1246 11.0483 21.1803 11.0205 21.1795C10.9926 21.1791 10.97 21.2064 10.97 21.2407C10.97 21.2791 10.932 21.3026 10.869 21.3026C10.7971 21.3026 10.7737 21.3204 10.7883 21.3646C10.7992 21.3989 10.7903 21.4266 10.7681 21.4266C10.7459 21.4266 10.737 21.4543 10.7479 21.4886C10.7632 21.5357 10.7345 21.5505 10.6267 21.5505C10.5278 21.5505 10.4785 21.572 10.4627 21.6228C10.4466 21.6737 10.4046 21.6923 10.3214 21.6848C10.256 21.679 10.2027 21.6931 10.2027 21.7158C10.2027 21.7385 10.1437 21.7753 10.0714 21.7976C9.99911 21.8203 9.84928 21.841 9.73821 21.8439C9.62715 21.8468 9.48176 21.8468 9.41512 21.8439C9.32143 21.8398 9.3077 21.8294 9.35454 21.7984C9.38806 21.7765 9.51044 21.7579 9.62715 21.7579C9.74387 21.7575 9.83918 21.7385 9.83918 21.7158C9.83918 21.6931 9.81212 21.6654 9.7786 21.6538C9.74508 21.6423 9.60009 21.6332 9.45551 21.6332C9.31093 21.6332 9.18371 21.6518 9.17281 21.6745C9.1619 21.6972 9.07992 21.7158 8.99107 21.7158C8.90222 21.7158 8.82952 21.6972 8.82952 21.6745C8.82952 21.6472 7.90064 21.6332 6.12364 21.6332C4.34664 21.6332 3.41776 21.6472 3.41776 21.6745C3.41776 21.6997 3.3705 21.7038 3.29579 21.6848C3.20855 21.6629 3.17382 21.6687 3.17463 21.7055C3.17503 21.741 3.10072 21.7571 2.93312 21.7571C2.7849 21.7571 2.69848 21.7732 2.711 21.7984C2.7219 21.8212 2.70413 21.8488 2.67061 21.8604C2.63709 21.872 2.59186 21.872 2.56964 21.8604C2.54743 21.8488 2.50099 21.8629 2.46666 21.8914C2.41658 21.9327 2.38427 21.9327 2.30511 21.8914C2.25059 21.8629 2.16982 21.8397 2.12539 21.8397C2.07181 21.84 2.05499 21.857 2.07491 21.8906C2.09632 21.9265 2.0846 21.9327 2.03452 21.9112C1.99575 21.8947 1.93356 21.8811 1.8964 21.8811C1.85965 21.8811 1.84148 21.872 1.85602 21.8604C1.87096 21.8493 1.86046 21.815 1.83259 21.7848C1.80473 21.7542 1.70942 21.7146 1.62057 21.6968C1.53172 21.6786 1.48164 21.6571 1.5095 21.6485C1.53737 21.6402 1.55999 21.6146 1.55999 21.5919C1.55999 21.5691 1.50991 21.56 1.44892 21.5716C1.38794 21.5828 1.36048 21.5828 1.38834 21.5716C1.42873 21.5547 1.42873 21.5377 1.38834 21.4869C1.36048 21.4518 1.32413 21.4237 1.30757 21.4249C1.29101 21.4258 1.28657 21.4543 1.29747 21.4886C1.31161 21.5315 1.2898 21.5505 1.2268 21.5497C1.1533 21.5493 1.14764 21.5414 1.19651 21.5092C1.25022 21.4737 1.25022 21.4691 1.19651 21.4671C1.14885 21.4658 1.15128 21.4568 1.20661 21.4254C1.24538 21.4035 1.27728 21.3576 1.27728 21.3233C1.27728 21.2783 1.25265 21.2692 1.18641 21.2894C1.12139 21.3097 1.10402 21.3039 1.12583 21.2688C1.14481 21.2382 1.11533 21.2022 1.04506 21.1721C0.984077 21.1456 0.906939 21.1295 0.873418 21.1357C0.82859 21.1444 0.818089 21.1204 0.833032 21.044C0.849187 20.961 0.841109 20.9477 0.792646 20.9758C0.759529 20.9953 0.718739 20.9977 0.702988 20.9812C0.686834 20.9651 0.691276 20.9188 0.713085 20.8792C0.738663 20.8312 0.738259 20.8071 0.711873 20.8069C0.689661 20.8069 0.662198 20.8254 0.651294 20.8482C0.640389 20.8709 0.612927 20.88 0.590714 20.8688C0.565271 20.856 0.569309 20.8246 0.600811 20.7854C0.628677 20.7507 0.637966 20.7089 0.621812 20.6924C0.605657 20.6759 0.569309 20.6837 0.541039 20.7098C0.502268 20.7457 0.477632 20.7432 0.439266 20.6994C0.411399 20.6676 0.400899 20.6321 0.415841 20.6209C0.430381 20.6098 0.417053 20.6003 0.385552 20.6003C0.3488 20.6003 0.326184 20.5515 0.322953 20.466C0.320126 20.392 0.335877 20.3222 0.357281 20.3111C0.382321 20.2978 0.380705 20.2565 0.352435 20.1974C0.327799 20.1462 0.285394 20.109 0.257527 20.1148C0.226834 20.121 0.213102 20.0925 0.222391 20.0425C0.230468 19.9971 0.243796 19.4393 0.251873 18.803C0.259546 18.1668 0.275297 16.4563 0.286605 15.002C0.297913 13.5476 0.311241 12.209 0.316895 12.0272C0.322145 11.8454 0.312049 11.1852 0.294683 10.5605C0.27247 9.76022 0.248642 9.4144 0.214718 9.39003C0.179178 9.36482 0.182409 9.35036 0.227237 9.33425C0.268835 9.31896 0.273278 9.30368 0.241373 9.2855C0.213506 9.26938 0.189678 9.10288 0.180793 8.85994C0.17312 8.64056 0.180389 8.46868 0.196948 8.47777C0.213506 8.48727 0.252681 8.43439 0.284182 8.36043C0.31528 8.28648 0.333453 8.20302 0.324568 8.17451C0.31528 8.146 0.32578 8.09023 0.347185 8.05056C0.378282 7.99313 0.387167 7.99107 0.389994 8.04023C0.392417 8.07453 0.413418 8.05635 0.438054 7.99892C0.462286 7.9419 0.479248 7.88158 0.476017 7.86464C0.472382 7.8477 0.487729 7.84316 0.509942 7.85431C0.532154 7.86547 0.559617 7.84729 0.570521 7.813C0.581425 7.77871 0.57254 7.76053 0.550328 7.77168C0.528115 7.78284 0.509942 7.77829 0.509538 7.76135C0.509134 7.74441 0.613734 7.62294 0.741759 7.49156C0.869784 7.36059 0.987712 7.26763 1.00387 7.28498C1.01962 7.30275 1.1016 7.26226 1.1856 7.19532C1.2692 7.12839 1.34715 7.05733 1.35805 7.03708C1.36896 7.01684 1.39198 7.00197 1.40854 7.00362C1.4251 7.00568 1.46144 7.00692 1.48931 7.00651C1.52606 7.0061 1.52727 6.99783 1.49335 6.97552C1.4675 6.959 1.50991 6.94536 1.58745 6.94536C1.66903 6.94536 1.74778 6.91809 1.77524 6.87967Z" fill="white"/>
<path d="M21.8633 0.392028C21.7878 0.35443 21.7825 0.340383 21.833 0.310222C21.8665 0.290391 21.9073 0.273451 21.9239 0.273451C21.9404 0.273038 21.9812 0.282127 22.0147 0.293283C22.0482 0.304851 22.0749 0.333772 22.0745 0.357736C22.0737 0.381699 22.0555 0.391201 22.0341 0.378393C22.0123 0.365586 21.9856 0.373849 21.9743 0.396572C21.961 0.423428 21.9226 0.422188 21.8633 0.392028Z" fill="white" fill-opacity="0.99"/>
<path d="M0.575652 1.32618C0.590998 1.28073 0.65602 1.17372 0.720639 1.08861C0.785257 1.0035 0.855125 0.933679 0.875722 0.933679C0.895915 0.933679 0.91207 0.947727 0.911262 0.964666C0.910454 0.981606 0.82847 1.08861 0.728716 1.20223C0.629365 1.31585 0.560305 1.37163 0.575652 1.32618Z" fill="white" fill-opacity="0.99"/>
<path d="M0.626538 7.7161C0.587364 7.7066 0.612807 7.65826 0.708523 7.56117C0.785257 7.48349 0.852702 7.42028 0.85876 7.42028C0.864818 7.42028 0.861183 7.43887 0.850682 7.46159C0.840586 7.48432 0.854721 7.5339 0.882588 7.57191C0.927416 7.63306 0.920551 7.6376 0.822008 7.61322C0.741639 7.59298 0.705292 7.60289 0.690753 7.64752C0.679444 7.68181 0.688733 7.71403 0.71135 7.71982C0.733966 7.7256 0.706503 7.79997 0.65077 7.88508C0.595037 7.97019 0.549401 8.05861 0.549401 8.08133C0.549401 8.10406 0.531227 8.12265 0.509014 8.12265C0.486802 8.12265 0.468628 8.08546 0.468628 8.04002C0.468628 7.99457 0.486802 7.95739 0.509014 7.95739C0.531227 7.95739 0.57969 7.90615 0.616442 7.84377C0.672579 7.74915 0.674194 7.72767 0.626538 7.7161Z" fill="white" fill-opacity="0.99"/>
<path d="M11.6342 8.61844C11.6213 8.60728 11.6217 8.53746 11.6358 8.46351C11.6504 8.38666 11.6855 8.32923 11.719 8.32923C11.7538 8.32923 11.7768 8.37054 11.7768 8.43252C11.7768 8.50606 11.7594 8.53002 11.7162 8.51515C11.6774 8.50193 11.656 8.52052 11.6568 8.5668C11.6573 8.60646 11.6472 8.63001 11.6342 8.61844Z" fill="white" fill-opacity="0.99"/>
<path d="M9.53522 0.097506C8.84663 0.103703 7.70168 0.103703 6.99088 0.097506C6.28008 0.0913086 6.84347 0.0859375 8.24285 0.0859375C9.64224 0.0859375 10.2238 0.0913086 9.53522 0.097506Z" fill="white"/>
<path d="M18.3798 0.097506C17.1359 0.103703 15.1093 0.103703 13.8767 0.097506C12.6442 0.0913086 13.6615 0.0863507 16.1384 0.0863507C18.6153 0.0863507 19.6237 0.0913086 18.3798 0.097506Z" fill="white"/>
<path d="M9.55541 0.180138C8.85551 0.186335 7.69279 0.186335 6.97068 0.180138C6.24858 0.17394 6.82125 0.168569 8.24285 0.168569C9.66445 0.168569 10.2553 0.17394 9.55541 0.180138Z" fill="white"/>
<path d="M18.4 0.180138C17.1448 0.186335 15.1004 0.186335 13.8566 0.180138C12.6127 0.17394 13.6393 0.168982 16.1384 0.168982C18.6375 0.168982 19.6552 0.17394 18.4 0.180138Z" fill="white"/>
</svg>
