<svg width="2591" height="523" viewBox="0 0 2591 523" fill="none" xmlns="http://www.w3.org/2000/svg">
<path fill-rule="evenodd" clip-rule="evenodd" d="M197.5 1.53194C195.3 2.25694 192.337 2.88496 190.915 2.92696C186.484 3.05896 174.064 9.83204 168.25 15.288C160.996 22.095 155.685 30.375 152.846 39.304C149.597 49.521 149.601 69.5039 152.855 78.8499C156.478 89.2589 159.585 94.449 166.23 101.192C172.945 108.008 182.399 113.347 193.154 116.399C201.433 118.749 219.534 118.568 228.347 116.048C255.045 108.413 271.058 88.124 271.398 61.504C271.697 38.098 261.864 19.165 243.898 8.55C231.468 1.206 208.864 -2.21306 197.5 1.53194ZM2055 1.51204C2052.53 2.31604 2049.46 2.97997 2048.19 2.98897C2041.84 3.03097 2026.47 12.9419 2019.94 21.2039C2013.3 29.5939 2010.7 35.833 2008.54 48.504C2005.86 64.248 2009.53 81.6459 2018.3 94.7659C2022.32 100.775 2024.6 102.98 2031.34 107.358C2044.2 115.721 2052.06 118.004 2068 118.004C2083.49 118.004 2093.15 115.064 2106.62 106.248C2128.56 91.884 2135.47 56.568 2121.73 29.045C2120.5 26.593 2116.35 21.4049 2112.5 17.5159C2101.11 6.00695 2088.95 1.18004 2069.5 0.434037C2062.52 0.166037 2058.14 0.49204 2055 1.51204ZM0 259.897C0 485.932 0.14497 508.846 1.58197 509.397C2.45197 509.731 25.087 510.004 51.882 510.004C88.44 510.004 100.9 509.704 101.8 508.804C102.727 507.877 103 451.093 103 259.304V11.004H51.5H0V259.897ZM1430 258.922C1430 395.277 1430.27 507.552 1430.61 508.422C1431.15 509.835 1436.52 510.004 1480.91 510.004C1518.22 510.004 1530.9 509.705 1531.8 508.804C1532.73 507.877 1533 451.093 1533 259.304V11.004H1481.5H1430V258.922ZM2295.24 45.2509L2295.5 78.504H2443H2590.5V45.504V12.504L2442.74 12.2509L2294.97 11.997L2295.24 45.2509ZM837.5 49.999C835.3 50.431 830.35 51.524 826.5 52.427C822.65 53.331 817.475 54.462 815 54.941C812.525 55.421 807.35 56.5379 803.5 57.4229C796.528 59.0269 785.108 61.478 777.5 63.003C775.3 63.445 770.35 64.538 766.5 65.434C762.65 66.33 757.25 67.462 754.5 67.951C751.75 68.44 748.263 69.3149 746.75 69.8969L744 70.9539V117.979V165.004H712.559C695.266 165.004 680.896 165.364 680.624 165.804C679.981 166.844 679.16 238.901 679.765 241.213C680.191 242.843 682.614 242.996 711.863 243.24L743.5 243.504L744.129 328.004C744.513 379.636 745.174 415.227 745.828 419.504C750.221 448.24 762.446 472.121 782.225 490.604C788.205 496.193 802.738 506.004 805.035 506.004C805.566 506.004 806 506.402 806 506.887C806 507.373 806.787 508.01 807.75 508.303C808.713 508.596 811.975 509.796 815 510.971C818.025 512.146 822.525 513.762 825 514.563C827.475 515.364 831.075 516.546 833 517.189C836.561 518.378 840.767 519.271 851.5 521.115C854.8 521.682 866.95 522.18 878.5 522.223C899.426 522.3 908.108 521.26 920.5 517.195C922.15 516.654 926.2 515.417 929.5 514.446C932.8 513.476 936.175 512.332 937 511.905C937.825 511.478 941.2 509.955 944.5 508.521C962.751 500.591 977.209 489.905 991.665 473.662C995.056 469.852 998.612 465.283 999.567 463.51C1001.51 459.902 1002.49 462.701 990.467 437.504C988.105 432.554 983.434 422.761 980.086 415.741C976.739 408.721 973.99 402.646 973.978 402.241C973.966 401.836 973.136 400.439 972.135 399.137L970.315 396.77L967.047 402.082C956.45 419.304 941.472 431.39 924.5 436.413C921.2 437.389 917.118 438.597 915.429 439.096C909.733 440.78 889.873 440.19 883.7 438.153C870.796 433.896 859.649 424.309 854.137 412.728C847.112 397.967 847.599 404.465 847.23 320.595C846.959 259.049 847.142 244.53 848.198 243.861C848.914 243.406 879.489 243.028 916.143 243.019C975.981 243.006 982.848 242.842 983.393 241.422C983.727 240.552 984 223.275 984 203.029C984 170.385 983.821 166.149 982.418 165.611C981.548 165.277 950.727 165.004 913.926 165.004H847.016L846.758 107.254L846.5 49.504L844 49.359C842.625 49.278 839.7 49.567 837.5 49.999ZM2295.67 90.664C2295.3 91.034 2295 132.662 2295 183.171V275.004H2368.5H2442.01L2441.75 182.754L2441.5 90.504L2368.92 90.248C2329.01 90.106 2296.04 90.294 2295.67 90.664ZM1177 153.649C1146.65 158.216 1125.42 165.342 1102.02 178.818C1080.64 191.132 1063.09 207.645 1049.15 228.555C1038.87 243.975 1031.51 259.544 1026.73 276.004C1020.3 298.087 1018.71 311.161 1019.25 337.504C1019.86 367.323 1022.59 382.334 1031.8 406.504C1043.53 437.286 1067.97 467.645 1097 487.489C1106.06 493.679 1130.67 505.988 1141.5 509.744C1164.2 517.616 1186.58 521.425 1216.5 522.514C1241.66 523.429 1252.44 522.265 1286 515.01C1295.09 513.046 1314.03 506.372 1322.77 502.056C1327.29 499.827 1331.2 498.004 1331.47 498.004C1332.56 498.004 1346.06 489.369 1355.16 482.858C1370.1 472.167 1391.17 448.916 1389.17 445.337C1388.79 444.655 1382.85 439.775 1375.99 434.493C1358.78 421.258 1358.06 420.698 1344.69 410.254C1338.18 405.166 1332.66 401.004 1332.44 401.004C1332.21 401.004 1328.09 405.023 1323.26 409.936C1299.74 433.908 1263.53 448.004 1225.48 448.004C1213.79 448.004 1202.97 446.045 1186 440.859C1161.28 433.305 1139.26 412.866 1130.02 388.894C1127.13 381.415 1124.97 373.201 1124.64 368.504C1124.5 366.516 1125.28 366.501 1250.96 366.004L1377.42 365.504L1378.65 363.004C1381.2 357.776 1383.32 336.93 1382.73 322.902C1381.89 302.946 1377.64 276.787 1373.91 268.504C1373.41 267.404 1372.14 263.804 1371.08 260.504C1370.02 257.204 1368.28 252.704 1367.21 250.504C1366.14 248.304 1364.44 244.704 1363.44 242.504C1357.52 229.507 1345.94 213.672 1333.1 201.004C1300.57 168.923 1254.88 151.769 1202.86 152.112C1193.86 152.171 1182.22 152.863 1177 153.649ZM1726 153.66C1709.8 155.826 1702.04 157.104 1695.5 158.684C1687.74 160.557 1678.77 163.245 1677.5 164.076C1676.95 164.435 1675.25 165.027 1673.72 165.392C1666.58 167.098 1646.61 177.041 1636 184.172C1621.55 193.882 1606.4 209.42 1598.4 222.74C1594.38 229.419 1588.31 242.354 1586.54 248.004C1585.6 251.029 1584.18 255.529 1583.41 258.004C1582.63 260.479 1581.99 265.317 1582 268.754C1582 274.568 1582.16 275.004 1584.25 275.003C1585.49 275.003 1590.32 275.69 1595 276.53C1599.68 277.37 1606.2 278.468 1609.5 278.97C1621.52 280.801 1635.64 283.086 1641.5 284.15C1644.8 284.749 1650.42 285.606 1654 286.055C1657.58 286.504 1664.97 287.578 1670.44 288.442C1681.4 290.173 1681.95 289.988 1682 284.504C1682.11 273.725 1694.39 253.49 1707 243.329C1714.9 236.962 1720.84 233.874 1732 230.338C1739.72 227.891 1741.96 227.642 1756.5 227.606C1774.77 227.562 1779.54 228.58 1792 235.173C1805.32 242.221 1812.74 251.484 1816.41 265.648C1818.7 274.498 1818.45 280.182 1815.51 285.984C1811.14 294.607 1802.69 299.566 1790.53 300.644C1787.76 300.89 1781.9 301.538 1777.5 302.086C1773.1 302.633 1765.49 303.506 1760.6 304.024C1755.7 304.543 1750.97 305.194 1750.1 305.47C1749.22 305.747 1744.45 306.426 1739.5 306.978C1734.55 307.531 1725.55 308.674 1719.5 309.519C1713.45 310.363 1705.35 311.466 1701.5 311.969C1687.85 313.752 1674.7 316.849 1659 321.972C1632.61 330.587 1612.66 342.16 1596.95 357.975C1576.51 378.557 1568.02 401.949 1570.91 429.738C1572.38 443.899 1574.06 450.017 1579.77 462.004C1585.18 473.359 1595.88 486.154 1606.53 494.024C1617.12 501.852 1636.22 510.495 1652.5 514.833C1668.56 519.112 1708.02 520.616 1721.79 517.474C1725.48 516.633 1730.75 515.473 1733.5 514.898C1744.39 512.618 1758.34 506.83 1771.98 498.937C1785.16 491.304 1802.61 474.817 1811.51 461.586C1814.81 456.68 1818 452.502 1818.61 452.301C1819.3 452.07 1819.96 454.627 1820.38 459.22C1821.63 472.687 1827.06 484.326 1837.45 495.83C1842.26 501.143 1860.24 512.44 1866.5 514.073C1886.4 519.268 1885.74 519.187 1904.5 518.688C1914.4 518.424 1924.08 517.75 1926 517.19C1927.92 516.629 1931.97 515.626 1935 514.96C1940.63 513.72 1947.94 511.554 1951.5 510.069C1968.55 502.954 1985.91 491.49 1985.97 487.313C1985.99 486.108 1984.2 481.244 1982 476.504C1979.8 471.764 1978 467.72 1978 467.518C1978 467.316 1976.39 463.63 1974.43 459.327C1970.54 450.808 1968.23 445.682 1965.5 439.504C1964.53 437.304 1963.59 435.336 1963.41 435.131C1963.23 434.926 1961.09 436.516 1958.65 438.665C1951.1 445.305 1944.67 448.248 1937.55 448.315C1929.87 448.388 1924.95 445.7 1921.72 439.653L1919.5 435.504L1918.87 358.004C1918.49 311.903 1917.8 277.465 1917.17 273.004C1915.48 261.216 1912.55 248.06 1910.88 244.768C1910.4 243.813 1910 242.559 1910 241.982C1910 240.04 1901.11 222.386 1897.38 216.921C1889.36 205.173 1874.59 189.947 1864.45 182.971C1855.29 176.667 1832.33 165.004 1829.08 165.004C1828.47 165.004 1827.19 164.578 1826.24 164.057C1825.28 163.537 1822.03 162.392 1819 161.514C1802.65 156.767 1802.59 156.756 1777.5 153.525C1763.08 151.667 1740.46 151.727 1726 153.66ZM531.893 155.444C531.651 155.687 527.638 156.356 522.976 156.932C485.533 161.559 454.239 180.514 431.666 212.237C429.213 215.684 426.215 220.416 425.002 222.754C423.79 225.092 422.448 227.004 422.02 227.004C420.925 227.004 419.359 222.658 417.516 214.504C416.645 210.654 415.287 205.029 414.496 202.004C412.03 192.57 408.875 179.679 408.011 175.504C407.555 173.304 406.771 170.154 406.269 168.504L405.356 165.504H362.428H319.5V337.504V509.504L369.441 509.763C400.621 509.925 419.744 509.66 420.348 509.056C420.956 508.448 421.361 470.857 421.439 407.797C421.565 305.955 421.589 305.208 425.203 292.504C427.176 285.57 433.732 272.684 437.705 267.931C444.078 260.307 453.838 252.225 460.439 249.107C473.453 242.958 478.586 241.715 492.921 241.242C513.461 240.565 524.531 244.151 536.661 255.415C544.859 263.027 548.756 269.929 552.803 284.004C554.186 288.813 554.454 303.324 554.942 399.504L555.5 509.504L605.71 509.763C655.559 510.021 655.928 510.008 657.025 507.957C657.822 506.469 658.023 470.75 657.746 380.198C657.366 256.152 657.333 254.371 655.212 244.382C648.67 213.569 637.914 194.548 618 178.58C606.967 169.734 595.742 164.45 576.5 159.048C568.453 156.789 533.382 153.956 531.893 155.444ZM159.667 165.671C159.3 166.037 159 243.157 159 337.048C159 480.001 159.222 507.943 160.364 508.891C161.348 509.708 175.478 509.951 211.114 509.764L260.5 509.504L261 338.254C261.275 244.066 261.35 166.553 261.167 166.004C260.791 164.878 160.787 164.55 159.667 165.671ZM2017.46 166.254C2017.2 166.942 2017.1 244.454 2017.24 338.504L2017.5 509.504H2068H2118.5L2118.75 337.254L2119.01 165.004H2068.47C2028.96 165.004 2017.83 165.277 2017.46 166.254ZM1225 227.446C1232.74 229.628 1235.72 230.922 1242 234.83C1253.31 241.87 1262.2 252.231 1268.76 266.025C1274.96 279.06 1280.18 303.222 1277.4 306.009C1276.73 306.673 1250.29 306.929 1199.94 306.76L1123.5 306.504L1123.74 303.004C1124.28 295.079 1128.23 282.122 1133.31 271.598C1145.14 247.066 1164.59 231.28 1189.5 225.982C1195.51 224.703 1218.65 225.657 1225 227.446ZM1815.52 370.504C1814.86 383.152 1813.75 389.911 1811.25 396.504C1801.52 422.114 1781.93 439.44 1754.67 446.536C1745.96 448.802 1719.08 448.794 1709.55 446.523C1698.97 444.002 1688.92 438.664 1683.03 432.44C1676.05 425.057 1673.87 419.595 1673.67 408.935C1673.52 401.29 1673.81 399.749 1676.39 394.637C1681.7 384.126 1696.23 374.377 1713.5 369.736C1732.99 364.499 1737.58 363.698 1766.25 360.525C1773.81 359.689 1785.96 358.322 1793.25 357.489C1800.54 356.655 1808.08 355.86 1810 355.722C1815.7 355.312 1816.24 356.754 1815.52 370.504Z" fill="#002860"/>
</svg>
