<svg width="22" height="21" viewBox="0 0 22 21" fill="none" xmlns="http://www.w3.org/2000/svg">
<path d="M13.5221 9.45663L14.0521 8.92663C13.9115 8.78618 13.7208 8.70729 13.5221 8.70729C13.3233 8.70729 13.1327 8.78618 12.9921 8.92663L13.5221 9.45663ZM10.6941 6.62763L11.2241 7.15763C11.3645 7.01701 11.4434 6.82638 11.4434 6.62763C11.4434 6.42888 11.3645 6.23826 11.2241 6.09763L10.6941 6.62763ZM2.3851 2.56263C2.25262 2.70481 2.1805 2.89285 2.18392 3.08715C2.18735 3.28146 2.26606 3.46684 2.40348 3.60425C2.54089 3.74167 2.72627 3.82038 2.92058 3.82381C3.11488 3.82723 3.30292 3.75511 3.4451 3.62263L2.9151 3.09263L2.3851 2.56263ZM13.5221 9.45663L12.9921 8.92663L10.8701 11.0466L11.4001 11.5776L11.9301 12.1076L14.0521 9.98663L13.5221 9.45663ZM11.4011 11.5776L10.8711 11.0476L3.5151 18.4006L4.0451 18.9306L4.5761 19.4606L11.9301 12.1066L11.4011 11.5776ZM4.0471 18.9316L3.5171 18.4016C3.43815 18.4807 3.34439 18.5434 3.24118 18.5862C3.13797 18.629 3.02733 18.6511 2.9156 18.6511C2.80386 18.6511 2.69323 18.629 2.59002 18.5862C2.48681 18.5434 2.39304 18.4807 2.3141 18.4016L1.7841 18.9316L1.2541 19.4616C1.69479 19.9022 2.29244 20.1497 2.9156 20.1497C3.53876 20.1497 4.1364 19.9022 4.5771 19.4616L4.0471 18.9316ZM1.7841 18.9316L2.3141 18.4016L1.7491 17.8356L1.2191 18.3656L0.688098 18.8956L1.2541 19.4616L1.7841 18.9316ZM1.2181 18.3656L1.7481 17.8356C1.58872 17.6762 1.49918 17.46 1.49918 17.2346C1.49918 17.0092 1.58872 16.793 1.7481 16.6336L1.2181 16.1036L0.688098 15.5736C0.24751 16.0143 0 16.612 0 17.2351C0 17.8583 0.24751 18.4549 0.688098 18.8956L1.2181 18.3656ZM1.2181 16.1036L1.7481 16.6336L9.1031 9.27963L8.5731 8.74963L8.0421 8.21963L0.688098 15.5736L1.2181 16.1036ZM8.5721 8.74963L9.1031 9.27963L11.2241 7.15863L10.6941 6.62863L10.1641 6.09763L8.0421 8.21863L8.5721 8.74963ZM20.1691 9.03263L19.6391 9.56263C19.7985 9.72203 19.888 9.93822 19.888 10.1636C19.888 10.389 19.7985 10.6052 19.6391 10.7646L20.1691 11.2946L20.6991 11.8246C21.1397 11.3839 21.3872 10.7863 21.3872 10.1631C21.3872 9.53997 21.1397 8.94232 20.6991 8.50163L20.1691 9.03263ZM20.1691 11.2946L19.6391 10.7646L18.3661 12.0376L18.8961 12.5676L19.4261 13.0976L20.6991 11.8246L20.1691 11.2946ZM18.8961 12.5676L18.3661 12.0376C18.2872 12.1167 18.1934 12.1794 18.0902 12.2222C17.987 12.265 17.8763 12.2871 17.7646 12.2871C17.6529 12.2871 17.5422 12.265 17.439 12.2222C17.3358 12.1794 17.242 12.1167 17.1631 12.0376L16.6331 12.5676L16.1031 13.0976C16.5438 13.5382 17.1414 13.7857 17.7646 13.7857C18.3878 13.7857 18.9854 13.5382 19.4261 13.0976L18.8961 12.5676ZM14.2291 3.09263L13.6991 3.62263L18.6491 8.57263L19.1791 8.04263L19.7091 7.51263L14.7591 2.56263L14.2291 3.09263ZM19.1791 8.04263L18.6491 8.57263L19.6391 9.56263L20.1691 9.03263L20.6991 8.50263L19.7091 7.51263L19.1791 8.04263ZM16.6331 12.5676L17.1631 12.0376L16.1731 11.0476L15.6431 11.5776L15.1131 12.1076L16.1031 13.0976L16.6331 12.5676ZM15.6431 11.5776L16.1731 11.0476L14.0531 8.92563L13.5221 9.45563L12.9921 9.98663L15.1131 12.1076L15.6431 11.5776ZM15.6431 11.5776L16.1731 12.1076L19.7091 8.57263L19.1791 8.04263L18.6491 7.51263L15.1131 11.0476L15.6431 11.5776ZM10.6931 6.62763L11.2231 6.09763L6.2741 1.14763L5.7441 1.67763L5.2141 2.20763L10.1641 7.15763L10.6931 6.62763ZM11.4011 11.5776L11.9311 11.0476L9.1031 8.21863L8.5731 8.74963L8.0421 9.27963L10.8701 12.1076L11.4011 11.5776ZM2.9151 3.09263L3.4451 3.62263C4.11834 2.94926 4.91763 2.41511 5.79733 2.05068C6.67703 1.68625 7.6199 1.49868 8.5721 1.49868C9.52429 1.49868 10.4672 1.68625 11.3469 2.05068C12.2266 2.41511 13.0259 2.94926 13.6991 3.62263L14.2291 3.09263L14.7591 2.56263C13.1182 0.921801 10.8927 0 8.5721 0C6.25154 0 4.02603 0.921801 2.3851 2.56263L2.9151 3.09263Z" fill="black" fill-opacity="0.6"/>
</svg>
