<svg width="16" height="17" viewBox="0 0 16 17" fill="none" xmlns="http://www.w3.org/2000/svg">
<path d="M15.4649 7.04623L8.90239 0.483728C8.65627 0.237772 8.32257 0.0996094 7.97462 0.0996094C7.62667 0.0996094 7.29296 0.237772 7.04684 0.483728L0.484344 7.04623C0.361875 7.16779 0.264794 7.31248 0.198747 7.4719C0.1327 7.63131 0.0990034 7.80227 0.0996176 7.97482V15.8498C0.0996176 16.0239 0.168758 16.1908 0.291829 16.3139C0.4149 16.4369 0.581819 16.5061 0.755868 16.5061H6.00587C6.17992 16.5061 6.34684 16.4369 6.46991 16.3139C6.59298 16.1908 6.66212 16.0239 6.66212 15.8498V11.2561H9.28712V15.8498C9.28712 16.0239 9.35626 16.1908 9.47933 16.3139C9.6024 16.4369 9.76932 16.5061 9.94337 16.5061H15.1934C15.3674 16.5061 15.5343 16.4369 15.6574 16.3139C15.7805 16.1908 15.8496 16.0239 15.8496 15.8498V7.97482C15.8502 7.80227 15.8165 7.63131 15.7505 7.4719C15.6844 7.31248 15.5874 7.16779 15.4649 7.04623ZM14.5371 15.1936H10.5996V10.5998C10.5996 10.4258 10.5305 10.2589 10.4074 10.1358C10.2843 10.0127 10.1174 9.94357 9.94337 9.94357H6.00587C5.83182 9.94357 5.6649 10.0127 5.54183 10.1358C5.41876 10.2589 5.34962 10.4258 5.34962 10.5998V15.1936H1.41212V7.97482L7.97462 1.41232L14.5371 7.97482V15.1936Z" fill="black" fill-opacity="0.6"/>
<path d="M7.97461 0.0498047C8.33573 0.0498047 8.68202 0.193027 8.9375 0.448242L15.5 7.01074L15.5908 7.10938C15.6761 7.21266 15.7454 7.32895 15.7969 7.45312C15.8653 7.61843 15.9 7.7957 15.8994 7.97461V15.8496C15.8994 16.0369 15.8248 16.2172 15.6924 16.3496C15.56 16.4818 15.3805 16.5557 15.1934 16.5557H9.94336C9.75623 16.5557 9.57675 16.4818 9.44434 16.3496C9.31189 16.2172 9.2373 16.0369 9.2373 15.8496V11.3057H6.71191V15.8496C6.71191 16.0369 6.63733 16.2172 6.50488 16.3496C6.37247 16.4818 6.19299 16.5557 6.00586 16.5557H0.755859C0.568732 16.5557 0.389245 16.4818 0.256836 16.3496C0.124388 16.2172 0.0498047 16.0369 0.0498047 15.8496V7.97461C0.0492194 7.7957 0.083915 7.61843 0.152344 7.45312C0.220928 7.28759 0.322046 7.13697 0.449219 7.01074L7.01172 0.448242C7.26719 0.193024 7.61349 0.0498068 7.97461 0.0498047ZM1.46191 7.99512V15.1436H5.2998V10.5996C5.29986 10.4124 5.37444 10.233 5.50684 10.1006C5.63927 9.9682 5.8186 9.89356 6.00586 9.89355H9.94336C10.1306 9.89355 10.3099 9.96821 10.4424 10.1006C10.5748 10.233 10.6494 10.4124 10.6494 10.5996V15.1436H14.4873V7.99512L7.97461 1.48242L1.46191 7.99512Z" stroke="black" stroke-opacity="0.6" stroke-width="0.1"/>
</svg>
