<svg width="35" height="35" viewBox="0 0 35 35" fill="none" xmlns="http://www.w3.org/2000/svg">
<path d="M35 8.75V35H0V8.75H8.83545C8.81266 8.56771 8.79557 8.38542 8.78418 8.20312C8.77279 8.02083 8.76139 7.83854 8.75 7.65625C8.75 6.59668 8.94938 5.60547 9.34814 4.68262C9.74691 3.75977 10.2938 2.94515 10.9888 2.23877C11.6838 1.53239 12.4927 0.985514 13.4155 0.598145C14.3384 0.210775 15.3353 0.0113932 16.4062 0C17.4658 0 18.457 0.199382 19.3799 0.598145C20.3027 0.996908 21.1173 1.54378 21.8237 2.23877C22.5301 2.93376 23.077 3.74268 23.4644 4.66553C23.8517 5.58838 24.0511 6.58529 24.0625 7.65625C24.0625 7.83854 24.0568 8.02083 24.0454 8.20312C24.034 8.38542 24.0112 8.56771 23.9771 8.75H35ZM16.4062 2.1875C15.6543 2.1875 14.9479 2.32992 14.2871 2.61475C13.6263 2.89958 13.0452 3.29264 12.5439 3.79395C12.0426 4.29525 11.6496 4.8763 11.3647 5.53711C11.0799 6.19792 10.9375 6.9043 10.9375 7.65625C10.9375 8.4082 11.0799 9.11458 11.3647 9.77539C11.6496 10.4362 12.0369 11.0173 12.5269 11.5186C13.0168 12.0199 13.5978 12.4129 14.27 12.6978C14.9422 12.9826 15.6543 13.125 16.4062 13.125C17.1582 13.125 17.8646 12.9826 18.5254 12.6978C19.1862 12.4129 19.7616 12.0256 20.2515 11.5356C20.7414 11.0457 21.1344 10.4647 21.4307 9.79248C21.7269 9.12028 21.875 8.4082 21.875 7.65625C21.875 6.9043 21.7326 6.19792 21.4478 5.53711C21.1629 4.8763 20.7699 4.30094 20.2686 3.81104C19.7673 3.32113 19.1862 2.92806 18.5254 2.63184C17.8646 2.33561 17.1582 2.1875 16.4062 2.1875ZM32.8125 10.9375H23.3276C23.0428 11.5299 22.6896 12.0825 22.2681 12.5952C21.8465 13.1079 21.3623 13.5465 20.8154 13.9111C21.9889 14.3669 23.0485 14.9707 23.9941 15.7227C24.9398 16.4746 25.7373 17.3405 26.3867 18.3203C27.0361 19.3001 27.5431 20.3711 27.9077 21.5332C28.2723 22.6953 28.4489 23.903 28.4375 25.1562V26.25H26.25V25.1562C26.25 23.7549 25.9993 22.4561 25.498 21.2598C24.9967 20.0635 24.3075 19.021 23.4302 18.1323C22.5529 17.2437 21.5161 16.5544 20.3198 16.0645C19.1235 15.5745 17.819 15.3239 16.4062 15.3125C15.1416 15.3125 13.9453 15.529 12.8174 15.9619C11.6895 16.3949 10.6868 17.0044 9.80957 17.7905C8.93229 18.5767 8.21452 19.4995 7.65625 20.5591C7.09798 21.6187 6.75049 22.7865 6.61377 24.0625H17.688L13.7573 20.1318L15.3125 18.5938L21.875 25.1562L15.3125 31.7188L13.7573 30.1807L17.688 26.25H4.375V25.1562C4.375 23.903 4.5516 22.701 4.90479 21.5503C5.25798 20.3996 5.77067 19.3343 6.44287 18.3545C7.11507 17.3747 7.91829 16.5088 8.85254 15.7568C9.78678 15.0049 10.8407 14.3953 12.0142 13.9282C10.8976 13.1421 10.0545 12.1452 9.48486 10.9375H2.1875V32.8125H32.8125V10.9375Z" fill="#062251"/>
</svg>
