<svg width="29" height="28" viewBox="0 0 29 28" fill="none" xmlns="http://www.w3.org/2000/svg">
<path d="M0 26.25V23.3333H2.91667V0H17.5V1.45833H23.3333V10.2083H20.4167V4.375H17.5V13.125H14.5833V2.91667H5.83333V23.3333H13.125V26.25H0ZM20.4167 27.7083L19.9792 25.5208C19.6875 25.3993 19.4143 25.2656 19.1596 25.1198C18.9049 24.974 18.6555 24.8038 18.4115 24.6094L16.2969 25.3385L14.8385 22.8229L16.4792 21.3646C16.4306 21 16.4062 20.6899 16.4062 20.4342C16.4062 20.1785 16.4306 19.8688 16.4792 19.5052L14.8385 18.0469L16.2969 15.5312L18.4115 16.2604C18.6545 16.066 18.9039 15.8895 19.1596 15.731C19.4153 15.5726 19.6885 15.4331 19.9792 15.3125L20.4167 13.125H23.3333L23.7708 15.3125C24.0625 15.434 24.3362 15.5677 24.5919 15.7135C24.8476 15.8594 25.0965 16.0295 25.3385 16.224L27.4531 15.4948L28.9115 18.0104L27.2708 19.4688C27.3194 19.8333 27.3437 20.1435 27.3437 20.3992C27.3437 20.6549 27.3194 20.9645 27.2708 21.3281L28.9115 22.7865L27.4531 25.3021L25.3385 24.6094C25.0955 24.8038 24.8461 24.974 24.5904 25.1198C24.3347 25.2656 24.0615 25.3993 23.7708 25.5208L23.3333 27.7083H20.4167ZM21.875 23.3333C22.6771 23.3333 23.364 23.048 23.9356 22.4773C24.5073 21.9066 24.7926 21.2197 24.7917 20.4167C24.7907 19.6136 24.5053 18.9272 23.9356 18.3575C23.3659 17.7878 22.679 17.5019 21.875 17.5C21.071 17.4981 20.3846 17.7839 19.8158 18.3575C19.2471 18.9311 18.9612 19.6175 18.9583 20.4167C18.9554 21.2158 19.2412 21.9027 19.8158 22.4773C20.3904 23.0519 21.0768 23.3372 21.875 23.3333ZM11.6667 14.5833C11.2535 14.5833 10.9074 14.4433 10.6283 14.1633C10.3493 13.8833 10.2093 13.5372 10.2083 13.125C10.2074 12.7128 10.3474 12.3667 10.6283 12.0867C10.9093 11.8067 11.2554 11.6667 11.6667 11.6667C12.0779 11.6667 12.4245 11.8067 12.7065 12.0867C12.9884 12.3667 13.1279 12.7128 13.125 13.125C13.1221 13.5372 12.9821 13.8838 12.705 14.1648C12.4279 14.4458 12.0818 14.5853 11.6667 14.5833Z" fill="#062251"/>
</svg>
