<svg width="20" height="23" viewBox="0 0 20 23" fill="none" xmlns="http://www.w3.org/2000/svg">
<path d="M9.36896 10.5763C9.36896 10.2475 9.66521 10 9.99396 10C10.3227 10 10.619 10.2475 10.619 10.5763V21.875C10.619 22.0408 10.5531 22.1997 10.4359 22.3169C10.3187 22.4342 10.1597 22.5 9.99396 22.5C9.8282 22.5 9.66923 22.4342 9.55202 22.3169C9.43481 22.1997 9.36896 22.0408 9.36896 21.875V10.5763ZM12.494 6.25C12.4941 5.69565 12.31 5.15698 11.9706 4.71868C11.6312 4.28039 11.1557 3.96734 10.619 3.82875V0.625C10.619 0.45924 10.5531 0.300269 10.4359 0.183058C10.3187 0.0658481 10.1597 0 9.99396 0C9.8282 0 9.66923 0.0658481 9.55202 0.183058C9.43481 0.300269 9.36896 0.45924 9.36896 0.625V3.82875C8.78115 3.98233 8.26934 4.3446 7.92908 4.84792C7.58883 5.35124 7.44339 5.96119 7.51994 6.56389C7.59648 7.16659 7.88977 7.72082 8.34503 8.12311C8.8003 8.52539 9.38642 8.74823 9.99396 8.75C10.657 8.75 11.2929 8.48661 11.7617 8.01777C12.2306 7.54893 12.494 6.91304 12.494 6.25ZM2.49396 18.75C3.10287 18.7506 3.69108 18.5289 4.14816 18.1266C4.60525 17.7243 4.89979 17.169 4.97651 16.565C5.05323 15.9609 4.90684 15.3496 4.56483 14.8458C4.22282 14.342 3.70869 13.9804 3.11896 13.8287V0.625C3.11896 0.45924 3.05311 0.300269 2.9359 0.183058C2.81869 0.0658481 2.65972 0 2.49396 0C2.3282 0 2.16923 0.0658481 2.05202 0.183058C1.93481 0.300269 1.86896 0.45924 1.86896 0.625V13.8287C1.28115 13.9823 0.769339 14.3446 0.429084 14.8479C0.0888284 15.3512 -0.056606 15.9612 0.0199366 16.5639C0.0964793 17.1666 0.389766 17.7208 0.845033 18.1231C1.3003 18.5254 1.88642 18.7482 2.49396 18.75ZM17.494 16.875C17.1652 16.875 16.869 17.1225 16.869 17.4513V21.875C16.869 22.0408 16.9348 22.1997 17.052 22.3169C17.1692 22.4342 17.3282 22.5 17.494 22.5C17.6597 22.5 17.8187 22.4342 17.9359 22.3169C18.0531 22.1997 18.119 22.0408 18.119 21.875V17.4513C18.119 17.1225 17.8227 16.875 17.494 16.875ZM18.119 10.7037C18.7068 10.8573 19.2186 11.2196 19.5588 11.7229C19.8991 12.2262 20.0445 12.8362 19.968 13.4389C19.8914 14.0416 19.5982 14.5958 19.1429 14.9981C18.6876 15.4004 18.1015 15.6232 17.494 15.625C16.885 15.6256 16.2968 15.4039 15.8398 15.0016C15.3827 14.5993 15.0881 14.044 15.0114 13.44C14.9347 12.8359 15.0811 12.2246 15.4231 11.7208C15.7651 11.217 16.2792 10.8554 16.869 10.7037V0.625C16.869 0.45924 16.9348 0.300269 17.052 0.183058C17.1692 0.0658481 17.3282 0 17.494 0C17.6597 0 17.8187 0.0658481 17.9359 0.183058C18.0531 0.300269 18.119 0.45924 18.119 0.625V10.7037ZM1.86896 20.5763C1.86896 20.2475 2.16521 20 2.49396 20C2.82271 20 3.11896 20.2475 3.11896 20.5763V21.875C3.11896 22.0408 3.05311 22.1997 2.9359 22.3169C2.81869 22.4342 2.65972 22.5 2.49396 22.5C2.3282 22.5 2.16923 22.4342 2.05202 22.3169C1.93481 22.1997 1.86896 22.0408 1.86896 21.875V20.5763Z" fill="#062251"/>
</svg>
