<svg width="30" height="30" viewBox="0 0 30 30" fill="none" xmlns="http://www.w3.org/2000/svg">
<path d="M17.3584 17.2705C16.499 16.5381 15.5469 15.9766 14.502 15.5859C13.457 15.1953 12.373 15 11.25 15C10.3906 15 9.56055 15.1123 8.75977 15.3369C7.95898 15.5615 7.21191 15.874 6.51855 16.2744C5.8252 16.6748 5.19531 17.1631 4.62891 17.7393C4.0625 18.3154 3.57422 18.9502 3.16406 19.6436C2.75391 20.3369 2.43652 21.084 2.21191 21.8848C1.9873 22.6855 1.875 23.5156 1.875 24.375H0C0 23.2031 0.170898 22.0752 0.512695 20.9912C0.854492 19.9072 1.34766 18.9062 1.99219 17.9883C2.63672 17.0703 3.39844 16.2549 4.27734 15.542C5.15625 14.8291 6.15234 14.2676 7.26562 13.8574C6.16211 13.1348 5.30273 12.2266 4.6875 11.1328C4.07227 10.0391 3.75977 8.82812 3.75 7.5C3.75 6.46484 3.94531 5.49316 4.33594 4.58496C4.72656 3.67676 5.25879 2.88086 5.93262 2.19727C6.60645 1.51367 7.40234 0.976562 8.32031 0.585938C9.23828 0.195313 10.2148 0 11.25 0C12.2852 0 13.2568 0.195313 14.165 0.585938C15.0732 0.976562 15.8691 1.50879 16.5527 2.18262C17.2363 2.85645 17.7734 3.65234 18.1641 4.57031C18.5547 5.48828 18.75 6.46484 18.75 7.5C18.75 8.14453 18.6719 8.77441 18.5156 9.38965C18.3594 10.0049 18.125 10.5859 17.8125 11.1328C17.5 11.6797 17.1338 12.1826 16.7139 12.6416C16.2939 13.1006 15.8008 13.5059 15.2344 13.8574C15.8691 14.1016 16.4746 14.3994 17.0508 14.751C17.627 15.1025 18.1689 15.498 18.6768 15.9375L17.3584 17.2705ZM5.625 7.5C5.625 8.28125 5.77148 9.00879 6.06445 9.68262C6.35742 10.3564 6.75781 10.9521 7.26562 11.4697C7.77344 11.9873 8.36914 12.3926 9.05273 12.6855C9.73633 12.9785 10.4688 13.125 11.25 13.125C12.0215 13.125 12.749 12.9785 13.4326 12.6855C14.1162 12.3926 14.7119 11.9922 15.2197 11.4844C15.7275 10.9766 16.1328 10.3809 16.4355 9.69727C16.7383 9.01367 16.8848 8.28125 16.875 7.5C16.875 6.72852 16.7285 6.00098 16.4355 5.31738C16.1426 4.63379 15.7422 4.03809 15.2344 3.53027C14.7266 3.02246 14.126 2.61719 13.4326 2.31445C12.7393 2.01172 12.0117 1.86523 11.25 1.875C10.4688 1.875 9.74121 2.02148 9.06738 2.31445C8.39355 2.60742 7.79785 3.00781 7.28027 3.51562C6.7627 4.02344 6.35742 4.62402 6.06445 5.31738C5.77148 6.01074 5.625 6.73828 5.625 7.5ZM25.3125 11.25C25.957 11.25 26.5625 11.3721 27.1289 11.6162C27.6953 11.8604 28.1885 12.1973 28.6084 12.627C29.0283 13.0566 29.3652 13.5547 29.6191 14.1211C29.873 14.6875 30 15.293 30 15.9375C30 16.582 29.8779 17.1875 29.6338 17.7539C29.3896 18.3203 29.0527 18.8184 28.623 19.248C28.1934 19.6777 27.6953 20.0146 27.1289 20.2588C26.5625 20.5029 25.957 20.625 25.3125 20.625C25.0879 20.625 24.8682 20.6104 24.6533 20.5811L16.0547 29.1797C15.791 29.4434 15.4883 29.6436 15.1465 29.7803C14.8047 29.917 14.4434 29.9902 14.0625 30C13.6719 30 13.3057 29.9268 12.9639 29.7803C12.6221 29.6338 12.3242 29.4336 12.0703 29.1797C11.8164 28.9258 11.6162 28.6279 11.4697 28.2861C11.3232 27.9443 11.25 27.5781 11.25 27.1875C11.25 26.8164 11.3184 26.46 11.4551 26.1182C11.5918 25.7764 11.7969 25.4688 12.0703 25.1953L20.6689 16.5967C20.6396 16.3818 20.625 16.1621 20.625 15.9375C20.625 15.293 20.7471 14.6875 20.9912 14.1211C21.2354 13.5547 21.5674 13.0615 21.9873 12.6416C22.4072 12.2217 22.9053 11.8848 23.4814 11.6309C24.0576 11.377 24.668 11.25 25.3125 11.25ZM25.3125 18.75C25.7031 18.75 26.0693 18.6768 26.4111 18.5303C26.7529 18.3838 27.0508 18.1836 27.3047 17.9297C27.5586 17.6758 27.7588 17.3779 27.9053 17.0361C28.0518 16.6943 28.125 16.3281 28.125 15.9375C28.125 15.5371 28.0322 15.1367 27.8467 14.7363L25.708 16.875H24.375V15.542L26.5137 13.4033C26.1133 13.2178 25.7129 13.125 25.3125 13.125C24.9219 13.125 24.5557 13.1982 24.2139 13.3447C23.8721 13.4912 23.5742 13.6914 23.3203 13.9453C23.0664 14.1992 22.8662 14.4971 22.7197 14.8389C22.5732 15.1807 22.5 15.5469 22.5 15.9375C22.5 16.3379 22.5928 16.7383 22.7783 17.1387L13.4033 26.5283C13.2178 26.7139 13.125 26.9336 13.125 27.1875C13.125 27.4414 13.2178 27.6611 13.4033 27.8467C13.5889 28.0322 13.8086 28.125 14.0625 28.125C14.3164 28.125 14.5361 28.0322 14.7217 27.8467L24.1113 18.4717C24.5117 18.6572 24.9121 18.75 25.3125 18.75Z" fill="#062251"/>
</svg>
