<svg width="30" height="27" viewBox="0 0 30 27" fill="none" xmlns="http://www.w3.org/2000/svg">
<path d="M24.3833 17.2678C24.8937 16.0282 25.1708 14.7011 25.1708 13.2428C25.1708 12.1928 25.0104 11.1865 24.7333 10.2532C23.7854 10.4719 22.7937 10.5886 21.7583 10.5886C19.6379 10.5909 17.5479 10.0833 15.6647 9.10872C13.7815 8.13412 12.1602 6.72104 10.9375 4.9886C9.63077 8.15427 7.16292 10.7004 4.03958 12.1053C3.98125 12.4699 3.98125 12.8636 3.98125 13.2428C3.98125 14.6351 4.25548 16.0137 4.78829 17.3C5.32109 18.5863 6.10203 19.7551 7.08653 20.7396C9.0748 22.7279 11.7715 23.8449 14.5833 23.8449C16.1146 23.8449 17.5875 23.5094 18.9146 22.9115C19.7458 24.5011 20.125 25.2886 20.0958 25.2886C17.7042 26.0907 15.8521 26.4844 14.5833 26.4844C11.0542 26.4844 7.68542 25.099 5.20625 22.6053C3.69695 21.1031 2.57581 19.2562 1.93958 17.224H0V10.5886H1.58958C2.07119 8.24435 3.17843 6.0742 4.79382 4.30842C6.40921 2.54265 8.47249 1.24711 10.7647 0.559294C13.057 -0.128528 15.4927 -0.182979 17.8133 0.401718C20.134 0.986415 22.2531 2.18845 23.9458 3.88027C25.783 5.71132 27.0365 8.04569 27.5479 10.5886H29.1667V17.224H29.0792L23.8875 21.9928L16.1583 21.1178V18.6824H23.2021L24.3833 17.2678ZM10.6021 12.9074C11.0396 12.9074 11.4625 13.0824 11.7687 13.4032C12.0765 13.7135 12.2492 14.1328 12.2492 14.5699C12.2492 15.0069 12.0765 15.4262 11.7687 15.7365C11.4625 16.0428 11.0396 16.2178 10.6021 16.2178C9.68333 16.2178 8.93958 15.4886 8.93958 14.5699C8.93958 13.6511 9.68333 12.9074 10.6021 12.9074ZM18.55 12.9074C19.4688 12.9074 20.1979 13.6511 20.1979 14.5699C20.1979 15.4886 19.4688 16.2178 18.55 16.2178C17.6313 16.2178 16.8875 15.4886 16.8875 14.5699C16.8875 14.1289 17.0627 13.7061 17.3744 13.3943C17.6862 13.0825 18.1091 12.9074 18.55 12.9074Z" fill="#062251"/>
</svg>
